<svg xmlns="http://www.w3.org/2000/svg" viewBox="0 0 383.35 383.41"><defs><style>.cls-1{fill:#020202;}</style></defs><g id="Capa_2" data-name="Capa 2"><g id="Capa_1-2" data-name="Capa 1"><path class="cls-1" d="M247.12,0c5.68,3,9.37,7.14,8.3,14.14A13.7,13.7,0,0,1,251.84,21c-4.71,5.49-9.28,11.1-14.19,16.4-1.94,2.09-1.62,3.27.08,5.16,4.82,5.38,9.39,11,14.18,16.41,3.62,4.11,4.9,8.67,2.68,13.76C252.29,78,247.86,80,242.26,80c-24.82,0-49.64,0-74.45-.08-2.95,0-4.05.44-3.95,3.73.28,8.73.14,17.46.06,26.19a10.94,10.94,0,0,0,1.52,5.63c16.8,29.74,33.51,59.53,50.39,89.23,1.5,2.64,1.09,3.86-1.11,5.68-10.09,8.32-20,16.85-30,25.29-6.64,5.61-12.51,5.32-18.75-.88-4.15-4.14-8.34-8.24-12.4-12.46-1.29-1.34-2-1.52-3.43-.06-4,4.25-8.24,8.34-12.4,12.47-6.27,6.22-12.1,6.54-18.77,1-9.85-8.23-19.58-16.6-29.54-24.71-2.18-1.78-2-3-.79-5.13Q113.3,161,137.88,116.11a14.65,14.65,0,0,0,1.85-7.44c-.13-31.17-.11-62.35-.33-93.52-.05-7,2.28-12.25,8.91-15.15Z"/><path class="cls-1" d="M383.35,375c-3.4,6.58-8.8,8.64-16.11,8.36-12.56-.48-25.15-.13-38-.13,2-7,2.59-13.71,1-20.53a40.27,40.27,0,0,0-4.42-10.58q-30.46-54.21-60.95-108.42c-1.25-2.21-1.45-3.83-.22-6.11,4-7.42,7.85-14.93,11.6-22.49,2.3-4.66,5.83-7.58,11-7.6s8.91,2.51,11.43,7.09q41.38,75,82.87,150c.55,1,.44,2.43,1.79,2.93Z"/><path class="cls-1" d="M229.48,229.05c25.55,45.51,50.87,90.55,76.1,135.63,5.19,9.28-.39,18.57-11,18.57H12.9c-10.31,0-16-9.32-11.11-18.35q36.09-66.19,72.27-132.35c1.29-2.38,2-2,3.67-.54q13.18,11.34,26.55,22.45c13.94,11.54,31.09,12,45.65,1.28,1.45-1.07,2.23-1.17,3.74,0,14.33,10.83,31.93,10.29,45.94-1.4,8.8-7.35,17.49-14.83,26.23-22.25C227,231.1,228.13,230.17,229.48,229.05Z"/></g></g></svg>