<svg xmlns="http://www.w3.org/2000/svg" viewBox="0 0 295.04 382.68"><defs><style>.cls-1{fill:#080609;}.cls-2{fill:#0e0b0d;}</style></defs><g id="Layer_2" data-name="Layer 2"><g id="Layer_1-2" data-name="Layer 1"><path class="cls-1" d="M182,382.68c-3.22-8.61-10.06-13.65-17.75-17.73-7.23-3.85-15-6.61-22.64-9.38-15.63-5.64-29.06-14.95-42.24-24.74-19.12-14.19-40.73-21.27-64.43-22.21-6.09-.24-12.18-.4-18.28-.61s-12.11-1.6-15.13-7.66S.43,288.1,4,282.77c7.2-10.7,17.54-15.21,30.33-14.67,10.73.46,21.11,3.25,31.72,4.4,9.82,1.07,19.63,1.12,29-3,7-3.08,8.68-6.05,7.81-13.62-2-17-7.72-33-12.42-49.32C80.16,171,68.41,135.85,59.22,100c-2-7.94-3.59-16-3.48-24.26S59.28,62,66,59.67s13.3-.48,18.51,5.82c6.76,8.19,10.43,18,13.71,27.87,7.07,21.29,11.7,43.28,18.64,64.6a66.58,66.58,0,0,0,4.64,11.73c.55,1,1,2.6,2.59,2.19,1.33-.34,1.66-1.77,1.84-3,.5-3.32.79-6.67,1.42-10,1.15-5.93,4.92-9,10.8-10.24,7.41-1.61,13.64-.08,19.29,5,4.83,4.32,6.47,3.78,9.11-2.29,1.28-3,2.48-6,4.54-8.51,6.21-7.68,15.83-9.14,23.87-3.42,2.72,1.94,5.15,4.3,7.74,6.44,4,3.33,6.65,3.38,9.9-.54,7.23-8.71,13.08-11.14,26-3.23,13.81,8.43,23,21.09,30.56,35,12.3,22.69,19.06,47.23,23.4,72.53a155.61,155.61,0,0,1,.68,50.5c-1.52,9.8-4.51,19.37-4.65,29.38,0,3-.23,6,.78,8.87,1,2.71-.18,3.77-2.72,4.73q-50.22,18.93-100.36,38.11c-1,.37-2.22.37-2.87,1.45Z"/><path class="cls-2" d="M50.92,126.67C26,123,3.4,97.24,1.24,70.31-1.23,39.58,17.42,11.83,46.58,2.88,75.49-6,106.09,6.14,121.44,32.82c13.7,23.8,9.33,53.09-4.94,69.53-3-9.37-5.57-18.78-9.68-27.66a5.24,5.24,0,0,1,0-3.3c4.62-24.66-14.56-48.32-39.7-49-26.54-.69-46.69,21.15-43.41,47.5,1.49,12,7.58,21.71,17.59,28.66a8.81,8.81,0,0,1,3.85,5.51C47,111.61,49,119.11,50.92,126.67Z"/></g></g></svg>