<svg xmlns="http://www.w3.org/2000/svg" viewBox="0 0 50.17 57.88"><g id="Layer_2" data-name="Layer 2"><g id="Layer_1-2" data-name="Layer 1"><path d="M49.09,35c0-.08-6.21.41-8.42.53a.91.91,0,0,0-.85.77c-.36,2.07-2.23,7.92-11.91,8.86-1.9.37-.65-6.74-1-7.54,0-1.17-1.92-.91-1.92-.91s-1.77-.26-1.74.91c-.34.8.9,7.91-1,7.54-9.69-.94-11.55-6.79-11.91-8.86a.91.91,0,0,0-.85-.77c-2.21-.12-8.42-.61-8.42-.53.31.1-.83,4.62.9,4.74,11.46.56-1.09,5,.71,6.61,1.91,2,1.78,4.2,4.76,1.78,6.37-2.31,3.47,3.09,2.46,4.77a.9.9,0,0,0,0,1c4.59,8,1.45-2.79,14.13-.64a5.33,5.33,0,0,0,1,0,6.71,6.71,0,0,0,1.08,0c12.68-2.15,9.54,8.63,14.13.64a.92.92,0,0,0,0-1c-1-1.68-3.91-7.08,2.46-4.77,3,2.42,2.85.2,4.76-1.78,1.8-1.65-10.75-6,.7-6.61C49.92,39.63,48.78,35.11,49.09,35ZM21.52,50.5c-.18-.06-6.16.19-6.06-.18-.78-1-4.25-5.1-4.29-5.23s-1.62-3.8.45-2.18S14.47,48,21.54,48.3a.54.54,0,0,1,.51.53C22,49.28,22.31,50.52,21.52,50.5Zm17.29-5.41c0,.13-3.51,4.28-4.3,5.23.12.37-5.88.12-6,.18-.79,0-.46-1.22-.53-1.67a.55.55,0,0,1,.52-.53c7.06-.34,7.88-3.81,9.91-5.39S38.87,44.94,38.81,45.09Z" style="fill:none;stroke:#fff;stroke-miterlimit:10;stroke-width:2px"/><path d="M11.29,21.24l3.19-10.92a1.09,1.09,0,0,1,.22-.41l7.22-8.52A1.1,1.1,0,0,1,22.77,1H27.4a1.1,1.1,0,0,1,.85.39l7.22,8.52a1.09,1.09,0,0,1,.22.41l3.19,10.92a1.77,1.77,0,0,1,0,.2c1.16,9.67-3.4,16.75-7.61,18.58a1.13,1.13,0,0,1-1.55-.72l-1.37-5a1.12,1.12,0,0,0-1.08-.82H22.85a1.13,1.13,0,0,0-1.08.82l-1.36,5a1.13,1.13,0,0,1-1.56.72c-4.22-1.84-8.76-9-7.6-18.58C11.26,21.37,11.28,21.31,11.29,21.24Z" style="fill:none;stroke:#fff;stroke-miterlimit:10;stroke-width:2px"/><path d="M30.2,24.37l-3,2.95a1.28,1.28,0,0,1-.92.38H23.85a1.28,1.28,0,0,1-.92-.38L20,24.37a1.33,1.33,0,0,1-.39-.94c0-9.38-1-8.52,3.78-16.8A1.32,1.32,0,0,1,24.52,6a4.21,4.21,0,0,0,.57,0,4,4,0,0,0,.56,0,1.32,1.32,0,0,1,1.15.67c4.74,8.28,3.77,7.42,3.78,16.8A1.37,1.37,0,0,1,30.2,24.37Z" style="fill:none;stroke:#fff;stroke-miterlimit:10;stroke-width:2px"/><path d="M19.2,29.35c0,.15,0,3.6,0,3.74-1.36,1-4.4-1.75-4.76-7.05C14.06,19.25,18.41,27,19.2,29.35Z" style="fill:none;stroke:#fff;stroke-miterlimit:10;stroke-width:2px"/><path d="M31,29.35c0,.15,0,3.6,0,3.74,1.36,1,4.4-1.75,4.77-7.05C36.11,19.25,31.76,27,31,29.35Z" style="fill:none;stroke:#fff;stroke-miterlimit:10;stroke-width:2px"/></g></g></svg>