<svg xmlns="http://www.w3.org/2000/svg" viewBox="0 0 40.13 40.13"><defs><style>.cls-1{fill:#fff;}</style></defs><g id="Layer_2" data-name="Layer 2"><g id="Layer_1-2" data-name="Layer 1"><path class="cls-1" d="M20,0A20.07,20.07,0,1,1,0,20.22,20.05,20.05,0,0,1,20,0ZM5.82,15.56a18.24,18.24,0,0,0,.13-2c0-.47-.12-1.28-.31-1.32-.76-.16-1,.53-1.34,1.1C1.22,19.37,3.21,28,8.8,33c5.2,4.6,14,5.65,19.15,2.31.87-.56,1.87-1.13.69-2.15-1.86-1.6-.4-1.78.79-2.33,2.86-1.35,6.38-2,7-6,.15-.93,1.06-2.1.29-2.73s-1.62.53-2.35,1a31.57,31.57,0,0,1-13.31,5.77c-.95.15-1.73.15-2-.66-.46-1.4.94-.83,1.46-1a36.49,36.49,0,0,0,14.12-9.37c.77-.82,2.22-2.12,1.5-2.76-2-1.77-1.6-4.53-3.25-6.36S30.33,6.28,29,9.25A21.48,21.48,0,0,1,13.8,21.9C8.25,23.23,5.77,21.24,5.82,15.56Zm5.49,3.94c3.8.14,3.79.14,3.58-3.6A18.5,18.5,0,0,1,17.46,5.72c.41-.73,1.6-1.54.79-2.39s-1.82,0-2.73.24c-3.87,1.16-8.63,9.84-7.69,13.86C8.34,19.6,9.89,19.58,11.31,19.5Z"/></g></g></svg>