<svg xmlns="http://www.w3.org/2000/svg" viewBox="0 0 92.63 109.71"><defs><style>.cls-1{fill:#4f46e5;}</style></defs><g id="Layer_2" data-name="Layer 2"><g id="Layer_1-2" data-name="Layer 1"><path class="cls-1" d="M45.26,0H47c.33.39.83.28,1.25.41Q69,6.67,89.77,12.88a3.47,3.47,0,0,1,2.85,3.84q0,23.27,0,46.52A26.23,26.23,0,0,1,90.4,73.63C87.64,80,83.22,85.11,78.17,89.7c-8.93,8.09-19.1,14.3-29.91,19.52a4.11,4.11,0,0,1-3.87,0A138.58,138.58,0,0,1,23,96.64C16.63,92,10.67,86.82,6,80.31A30.54,30.54,0,0,1,0,61.94c.1-15,0-30,0-45,0-2.42.73-3.38,3.08-4.08Q22.76,6.93,42.4,1A7.93,7.93,0,0,0,45.26,0Z"/></g></g></svg>