<svg xmlns="http://www.w3.org/2000/svg" viewBox="0 0 109.8 54.15"><defs><style>.cls-1{fill:#4f46e5;}</style></defs><g id="Layer_2" data-name="Layer 2"><g id="Layer_1-2" data-name="Layer 1"><path class="cls-1" d="M0,41.87a3,3,0,0,1,2.92-1.5c3.15.07,6.29,0,9.44,0,.57,0,.83-.1,1-.75a11.55,11.55,0,0,1,19.46-5.21,1.71,1.71,0,0,0,1.32.52H75.62a1.79,1.79,0,0,0,1.4-.58,11.56,11.56,0,0,1,19.37,5.15c.19.69.43.89,1.12.88,3.29,0,6.58,0,9.86,0a2.22,2.22,0,0,1,2.19,1.25,2,2,0,0,1-.23,2.21,2.27,2.27,0,0,1-2,.84c-3.25,0-6.5,0-9.75,0-.74,0-1,.2-1.21.93A11.55,11.55,0,0,1,77,50.7a1.68,1.68,0,0,0-1.31-.52c-3.54,0-7.08,0-10.61,0a3.2,3.2,0,0,1-1.56-.29,2.17,2.17,0,0,1-1.08-2.36,2.07,2.07,0,0,1,2.1-1.64c2.79,0,5.58,0,8.36,0,1,0,1.22-.14,1-1.15a9.47,9.47,0,0,1,0-4.67c.15-.62.15-.87-.63-.87q-18.37,0-36.76,0c-.67,0-.76.2-.61.8a10.2,10.2,0,0,1,0,5.09c-.16.62,0,.8.63.79,2.9,0,5.79,0,8.68,0,1.58,0,2.51.82,2.5,2.15s-1,2.13-2.54,2.14c-3.64,0-7.28,0-10.93,0a1.91,1.91,0,0,0-1.49.6A11.57,11.57,0,0,1,13.4,45.59c-.2-.74-.47-.94-1.2-.93-3,.05-6,0-9,.05A3.41,3.41,0,0,1,0,43.37Zm85.11,8a7.31,7.31,0,0,0,.25-14.61,7.31,7.31,0,1,0-.25,14.61Zm-60.56,0a7.31,7.31,0,1,0-7.28-7.28A7.31,7.31,0,0,0,24.55,49.84Z"/><path class="cls-1" d="M23.29,7.13h63.2c-.93-1-1.91-2.14-2.93-3.21s-1.17-2.3-.32-3.23,2.2-.92,3.31.14c2.35,2.25,4.69,4.5,7,6.78a2.17,2.17,0,0,1-.06,3.53q-3.48,3.25-7,6.48a2.22,2.22,0,0,1-3.24.1c-.89-.94-.74-2.24.38-3.29l2.82-2.64s0-.12.07-.25H23.05l3.12,2.89a2.17,2.17,0,1,1-2.9,3.17c-2.34-2.15-4.67-4.3-7-6.48a2.16,2.16,0,0,1,0-3.52q3.5-3.4,7-6.78a2.18,2.18,0,0,1,3.23-.2c.91.92.79,2.2-.27,3.31S24.24,6.09,23.29,7.13Z"/><path class="cls-1" d="M57.24,48a2.14,2.14,0,1,1-4.27.09A2.14,2.14,0,0,1,57.24,48Z"/></g></g></svg>