<svg xmlns="http://www.w3.org/2000/svg" viewBox="0 0 109.72 109.8"><defs><style>.cls-1{fill:#4f46e5;}</style></defs><g id="Layer_2" data-name="Layer 2"><g id="Layer_1-2" data-name="Layer 1"><path class="cls-1" d="M0,93.06c.53-.69.53-1.58.92-2.34A9.69,9.69,0,0,1,10,85.17a2.31,2.31,0,0,0,1.77-.74c3-3,6-6.05,9-9,.59-.57.54-.85,0-1.38-2-1.91-3.91-3.87-5.85-5.82-1.68-1.71-1.69-3.46,0-5.16S18,59.86,19.64,58.4a9.07,9.07,0,0,1,9.48-1.82c.73.25,1-.07,1.38-.53Q51.16,31.14,71.81,6.23A4.71,4.71,0,0,1,75,4.47Q90,2.37,105.07.19c.08,0,.14-.12.21-.19h1.93c2.24,1,2.77,2,2.41,4.53q-2.19,15.32-4.35,30.62a4.13,4.13,0,0,1-1.56,2.7Q83.42,54.65,63.14,71.48c-3.19,2.64-6.37,5.3-9.57,7.93-.39.32-.59.57-.39,1.14A9.37,9.37,0,0,1,51,90.63c-1.43,1.54-2.95,3-4.46,4.47a3.18,3.18,0,0,1-4.77,0c-2-2-4.07-4-6-6.07-.54-.56-.8-.48-1.3,0q-4.48,4.55-9,9a2.29,2.29,0,0,0-.76,1.76,9.61,9.61,0,0,1-7.24,9.66,14.51,14.51,0,0,1-4.36.34c-2.1,0-4.22.21-6.27-.48a9.51,9.51,0,0,1-6.26-6.23c-.13-.35-.07-.8-.49-1ZM39.72,65.8a8.93,8.93,0,0,1,.81-1.08Q58.41,46.81,76.31,28.93a9.54,9.54,0,0,1,1.1-1,3.18,3.18,0,0,1,5,1.87,3.38,3.38,0,0,1-1.19,3.35L65.88,48.45C58.93,55.4,52,62.36,45,69.28c-.68.68-.87,1,0,1.77a38.45,38.45,0,0,1,3.26,3.25c.5.54.81.53,1.37.07Q74,54.06,98.52,33.8a1.41,1.41,0,0,0,.57-1q1.77-12.51,3.6-25c.11-.76-.16-.81-.79-.72q-12.34,1.8-24.69,3.55a2,2,0,0,0-1.39.82L50.31,42.25q-7.43,9-14.86,17.89c-.51.6-.5.91.07,1.44C36.9,62.88,38.2,64.26,39.72,65.8ZM25.93,62.41a3.3,3.3,0,0,0-2.21.93c-.62.59-1.19,1.23-1.83,1.8-.42.37-.4.6,0,1Q32.78,77,43.63,87.87c.36.36.6.51,1,0,.54-.62,1.17-1.16,1.73-1.76a3.14,3.14,0,0,0,0-4.67c-6-6-12-12-18-18A3.42,3.42,0,0,0,25.93,62.41ZM12.29,103.35H14a10.9,10.9,0,0,0,1.28,0,3.06,3.06,0,0,0,2.7-2.12,2.83,2.83,0,0,0-.7-3.37c-2-1.79-3.8-3.76-5.7-5.65a2.14,2.14,0,0,0-.74-.58,3.46,3.46,0,0,0-4.39,3.16c-.06,1.78,0,3.56,0,5.35a3.21,3.21,0,0,0,3.28,3.23C10.57,103.37,11.43,103.35,12.29,103.35ZM30.48,83.84a3.4,3.4,0,0,0-.29-.33c-1.31-1.31-2.63-2.61-3.92-3.94-.38-.39-.55,0-.76.16-2.73,2.72-5.44,5.45-8.18,8.16-.43.41-.36.63,0,1,1.2,1.16,2.39,2.34,3.55,3.56.39.41.61.39,1,0,2.68-2.71,5.39-5.4,8.09-8.1Z"/></g></g></svg>