<svg xmlns="http://www.w3.org/2000/svg" viewBox="0 0 511.03 511.23"><defs><style>.cls-1{fill:#040404;}.cls-2{fill:#464443;}</style></defs><g id="Layer_2" data-name="Layer 2"><g id="Layer_1-2" data-name="Layer 1"><path class="cls-1" d="M237.56,511.23c-6.23-2.29-12.87-1.9-19.3-2.85A252.62,252.62,0,0,1,129,477.93c-4.56-2.6-6.81-2.09-10.21,1.52-8.89,9.44-18.25,18.44-27.43,27.6-1.13,1.12-2.35,2.16-4,3.63-15.68-61-31.19-121.32-47-182.84l182.35,46.85-33.08,32.95a151.13,151.13,0,0,0,41,11.62c38.06,5.28,74.1-1,107.24-20.82,45.09-26.92,72.17-66.5,81.1-118.27,2.24-13,2.16-26.16,1.9-39.29-.06-2.91.28-3.95,3.71-3.23,27.08,5.62,54.21,11,81.31,16.5a51.74,51.74,0,0,1,5.1,1.58v13c-1.34.41-.95,1.56-1,2.47a225,225,0,0,1-6.56,44.2q-24.54,97.94-108.59,154c-33.5,22.27-70.44,35.49-110.48,40.11-4.29.5-8.84-.37-12.91,1.79h-9a31,31,0,0,0-17,0Z"/><path class="cls-2" d="M245.54,511.23a31,31,0,0,1,17,0Z"/><path class="cls-1" d="M422.79,1.41c15.57,61.09,31,121.55,46.57,182.75L287.85,137.9l33.92-33.75C275.66,83.05,208.91,83,156.13,123.74c-49.75,38.39-69.82,90.23-66,152.58-12.9-2.75-25.18-5.33-37.44-8-16.18-3.5-32.33-7.19-48.56-10.47C.8,257.18-.09,256,0,252.76,2.17,180.47,28.79,119,81.34,69.08A244.47,244.47,0,0,1,193.53,7.8C259.73-8.23,322.85.42,382.3,34c3.94,2.22,6,2,9.06-1.26,8.92-9.41,18.25-18.43,27.43-27.59C419.93,4,421.14,2.93,422.79,1.41Z"/></g></g></svg>