<svg xmlns="http://www.w3.org/2000/svg" viewBox="0 0 287.46 287.48"><defs><style>.cls-1{fill:#010202;}.cls-2{fill:#020202;}</style></defs><g id="Capa_2" data-name="Capa 2"><g id="Capa_1-2" data-name="Capa 1"><path class="cls-1" d="M215.59,143.75q0-59.49,0-119C215.6,10.32,225.82,0,240.17,0c7.86,0,15.72,0,23.57,0a23.73,23.73,0,0,1,23.7,23.77q0,119.92,0,239.84a23.75,23.75,0,0,1-24,23.82q-12,0-24,0a23.75,23.75,0,0,1-23.86-24Q215.57,203.61,215.59,143.75Z"/><path class="cls-1" d="M107.8,179.48q0-41.53,0-83.08c0-14.19,10.28-24.5,24.41-24.52,8,0,16,0,23.95,0a23.66,23.66,0,0,1,23.48,23.57q0,84.21,0,168.4a23.66,23.66,0,0,1-23.47,23.59q-12.36.07-24.7,0a23.67,23.67,0,0,1-23.66-23.77Q107.76,221.58,107.8,179.48Z"/><path class="cls-2" d="M71.88,216q0,23.58,0,47.15c0,13.94-10.35,24.3-24.24,24.33q-12,0-23.94,0A23.69,23.69,0,0,1,0,263.66Q0,215.59,0,167.5a23.68,23.68,0,0,1,23.68-23.76q12.35-.06,24.69,0a23.66,23.66,0,0,1,23.46,23.59C71.91,183.54,71.87,199.76,71.88,216Z"/></g></g></svg>