<svg xmlns="http://www.w3.org/2000/svg" viewBox="0 0 408.81 408.81"><defs><style>.cls-1{fill:#4f46e5;}</style></defs><g id="Layer_2" data-name="Layer 2"><g id="Layer_1-2" data-name="Layer 1"><path class="cls-1" d="M0,269.09V239.54c2.15-4.76,1.83-10,2.85-15a154.51,154.51,0,0,1,30-65.6c19.43-24.72,44.05-42.2,74-51.76,36.7-11.73,73-10.11,108.65,4.81,2.49,1,3.89.71,5.76-1.17q31.08-31.3,62.37-62.37c2.36-2.33,2.37-3.45,0-5.81-7-7.12-7.58-16.64-1.82-23.82,6.92-8.63,18.52-9.16,26.9-.89,2.34,2.3,3.55,2.08,5.52-.15,2.46-2.79,5.16-5.37,7.87-7.92,13.91-13.12,32.34-13.24,46.06,0Q383.85,25,399,40.63c11.08,11.44,12.89,26.13,5.1,39.48-3.4,5.81-8.6,10.1-13.36,14.73-1.93,1.88-2.21,3-.08,4.94,4.67,4.3,7,9.72,5.86,16.14-1.2,6.83-5.16,11.66-11.73,13.9-7.27,2.48-13.73.54-18.9-5-2.13-2.27-3.19-2-5.24.07q-30.78,31-61.82,61.79c-2.56,2.52-3,4.45-1.59,7.76,12.46,29.66,15.1,60.3,8.6,91.76-12.85,62.19-64,110.79-126.31,120.43-3.68.56-7.54.43-11,2.14H139.73c-1.84-1.52-4.14-1.3-6.28-1.58a146.34,146.34,0,0,1-64.85-24.7C32,357.22,9.39,322.7,2.08,278.51,1.56,275.35,1.89,272,0,269.09Zm266.61-55.9a113.37,113.37,0,0,0-6.83-15.42c-5.68-10.94-4.66-17.33,4.05-26q36-36,72-71.91c2-1.95,2-3,0-4.92-7.18-6.93-14.26-14-21.16-21.17-2.38-2.48-3.69-2.84-6.36-.13-22.83,23.07-46,45.79-68.7,69-11.39,11.65-18,12.17-31.58,5.06A110.82,110.82,0,0,0,138.85,136c-41.6,6.26-72.13,28.5-91.52,66-1.54,3-.64,3.56,2.14,4.34,16.13,4.54,32.41,5.72,48.89,2.42,24.19-4.84,48.12-4.07,71.65,3.44,13.41,4.28,26.83,4.5,40.52,2,13.89-2.56,27.87-4.17,42-2.7C257.16,212,261.75,212.59,266.61,213.19Z"/></g></g></svg>