<svg xmlns="http://www.w3.org/2000/svg" viewBox="0 0 287.65 384"><defs><style>.cls-1{fill:#040404;}.cls-2{fill:#080808;}</style></defs><g id="Layer_2" data-name="Layer 2"><g id="Layer_1-2" data-name="Layer 1"><path class="cls-1" d="M145.32,0c1.8,2.13,4.54,2.69,6.8,4.06,19.72,12,36.2,27.7,51.36,44.88,20.58,23.32,37.72,48.88,49.18,78,6.56,16.68,10.89,33.88,10.92,51.95.07,31.65-12.54,57.69-36,78.25-27.71,24.27-60.48,33.71-96.88,30.13C95.9,283.84,66.86,269,45.14,241.18c-15.64-20.05-22.61-43.06-20.92-68.47,1.45-21.76,11.67-39,28-53,10.63-9.11,22.4-16.63,33.91-24.51,13.71-9.38,27-19.22,37.5-32.4,11.9-15,18.05-32.19,19.51-51.18.3-3.86.46-7.73.68-11.59Zm-1.59,108.66c-1.84-.11-3,.9-4.22,1.7-24.89,16.94-42.8,39.44-52.34,68.08-6,17.93-4.25,35.23,7.81,50.6,22.1,28.17,67.47,30.89,92.9,5.29,13.6-13.69,19.22-30.07,13.64-49.21-2.92-10-10.42-16.48-18.51-22.31-7.48-5.38-15.43-10.11-22.39-16.22A47.28,47.28,0,0,1,145.57,123,54.92,54.92,0,0,1,143.73,108.66Z"/><path class="cls-1" d="M42.77,384c-.33-1.14-1.45-.8-2.19-1.07C30,379,23.92,370.37,24.06,359.21c.13-10.07,6.82-18.92,16.93-22.29q47.14-15.75,94.28-31.46,59.32-19.8,118.64-39.62c15.58-5.2,29.5,2,33.11,17.08a23.56,23.56,0,0,1-15.12,27.56c-16.11,5.72-32.38,11-48.58,16.45-.93.31-1.83.69-3.09,1.18,8.81,3,17.25,5.78,25.68,8.63,11.77,4,18,12.71,17.66,24.7-.28,9.52-7.78,20.09-19,22-.16,0-.27.36-.4.55H234.4c-.14-.2-.23-.51-.4-.57q-43.92-14.69-87.83-29.36a7.47,7.47,0,0,0-5,.2c-10.92,3.7-21.87,7.29-32.8,11Q80.42,374.6,52.5,384Z"/><path class="cls-2" d="M106.2,290.07l-25.08,8.41c-16.41,5.53-32.83,11-49.21,16.67a3.87,3.87,0,0,1-2.77-.08c-4.23-1.43-8.51-2.72-12.7-4.24C3.61,306.16-2.92,293,1.26,280.46,5.51,267.69,18.73,261,31.84,265.3c17.8,5.79,35.54,11.77,53.3,17.69C91.84,285.22,98.53,287.49,106.2,290.07Z"/></g></g></svg>