<svg xmlns="http://www.w3.org/2000/svg" viewBox="0 0 383.34 383.33"><defs><style>.cls-1{fill:#010101;}</style></defs><g id="Layer_2" data-name="Layer 2"><g id="Layer_1-2" data-name="Layer 1"><path class="cls-1" d="M383.34,370.53v12.72q-67.36,0-134.73.07c-2.93,0-3.71-.73-3.7-3.66a331.88,331.88,0,0,0-6.06-65.06c-6.45-33.22-18.15-64.34-37.35-92.41a215.41,215.41,0,0,0-43-46.26c2.4-2.25,4.85-4.21,6.9-6.53,12.47-14.08,14.79-31.07,13.83-49-.09-1.56-.78-1.85-2.11-1.84-6,0-12,.09-18,0-2.08,0-2.52.82-2.45,2.67.12,3,0,6,0,9C156.66,152.29,142,167,119.94,167c-23.08,0-46.16.11-69.24-.1-3.77,0-4.54,1.08-4.33,4.54.31,5.1,0,10.23.12,15.34.06,2.08-.5,2.79-2.66,2.73-5.61-.15-11.23-.18-16.84,0-2.48.09-3.07-.66-3-3.08.11-13.47.16-26.95,0-40.42-.05-3.28.64-4.35,4.18-4.32,25.95.17,51.9,0,77.85.17,3,0,3.72-.9,3.59-3.72a142,142,0,0,1,0-14.59c.2-3.35-.71-4.33-4.21-4.32-33.93.15-67.87.06-101.8.15C.9,119.41,0,119,0,116c.19-13.72.16-27.44,0-41.17,0-2.61.65-3.27,3.27-3.25,16.09.13,32.18.07,48.27.06,3.48,0,7.67,1.06,10.26-.49,2.81-1.68,2.8-6.36,3.95-9.74,8.21-24.18,26.62-37.53,52-37.54q44.73,0,89.45,0h4.19c-1,1.44-1.67,2.42-2.36,3.4-8.37,11.93-16.7,23.89-25.17,35.76-1.32,1.86-1.31,2.71.68,4,4.6,3,9.11,6.11,13.45,9.45,2.1,1.61,3,1.38,4.54-.78,7.84-11.4,15.83-22.68,23.82-34,.75-1,1.12-2.56,2.72-2.82h0a.76.76,0,0,0,.73.81c11,10.86,22,21.65,32.11,33.37,71,82.69,108.62,179.33,120,287C382.36,363.55,381.85,367.18,383.34,370.53ZM120.85,82.9c3.91,0,7.15-.07,10.38,0,1.61,0,2.19-.47,2.17-2.11q-.1-9.15,0-18.31c0-1.63-.48-2.14-2.11-2.1-3.73.11-7.47-.06-11.2.06-3.44.12-8-1.52-10,.7-1.7,1.9-.6,6.37-.6,9.71,0,3.84-1.33,9,.6,11.19C112.33,84.64,117.59,82.53,120.85,82.9Z"/><path class="cls-1" d="M307,0c.07,6.84.05,13.69.24,20.53.08,2.66-1.7,1.9-3,1.91-20.19,0-40.37.08-60.56-.06-2.85,0-4.51.82-6,3.2C235,29.9,232,34,229.14,38.21c-1.4.44-2-.75-2.78-1.44-4.32-3.74-8.52-7.6-12.93-11.23-1.66-1.35-1.62-2.23-.43-3.86,4.45-6.11,8.78-12.31,13.06-18.55.64-.94,1.95-1.65,1.58-3.13Z"/><path class="cls-1" d="M175.25,383.25c-14.85,0-29.69-.09-44.53.08-2.91,0-3.5-.81-3.36-3.53.41-8.22,1-16.41,2.06-24.58.3-2.27,1-2.87,3.18-2.84,9.6.11,19.21.05,28.81.05,18.84,0,37.67.07,56.51-.08,3,0,3.67.91,3.81,3.73.37,8,.7,15.94.87,23.93.05,2.56-.51,3.33-3.2,3.31C204.69,383.18,190,383.25,175.25,383.25Z"/><path class="cls-1" d="M176.72,330c-13,0-25.92,0-38.87,0-2.34,0-3.26-.12-2.4-2.95q4-13.21,9.19-26a3,3,0,0,1,3.3-2.21q30.84.09,61.67,0c2,0,2.72.67,3.22,2.61,2.22,8.56,3.91,17.21,5.55,25.89.47,2.49-.44,2.63-2.41,2.62C202.89,329.94,189.8,330,176.72,330Z"/><path class="cls-1" d="M204.66,276.33H157.58a1.18,1.18,0,0,1,0-1.44,258.51,258.51,0,0,1,24.67-36c1.11-1.36,1.79-2.59,3.33-.2A207,207,0,0,1,204.66,276.33Z"/></g></g></svg>