<svg xmlns="http://www.w3.org/2000/svg" viewBox="0 0 194.46 158.05"><g id="Layer_2" data-name="Layer 2"><g id="Layer_1-2" data-name="Layer 1"><path d="M0,9.92c.69-.05,1.37-.15,2.06-.15,11.52,0,23,0,34.55,0,1.43,0,2-.27,1.92-1.85-.13-2.07.12-4.17,0-6.25C38.46.13,39.17,0,40.44,0q23.82,0,47.65,0c21.89,0,43.79,0,65.68,0,1.72,0,2.16.51,2.11,2.07-.07,2,.11,4.05,0,6.07-.07,1.39.46,1.65,1.73,1.65,11.58,0,23.16,0,34.74-.08,1.81,0,2.08.56,2.1,2.19a94.08,94.08,0,0,1-6.87,37.52C183.28,59.86,177,68.76,167.28,75c-9.39,6-19.76,8-30.74,7.28a3.73,3.73,0,0,0-3.74,1.7,57,57,0,0,1-19.63,16.95,2.63,2.63,0,0,1-.51.24c-3.45.69-4,2.92-3.89,6.13.26,7.21.13,14.43,0,21.64,0,1.55.46,1.83,1.88,1.82,8.17-.07,16.33,0,24.49-.07,1.4,0,1.84.3,1.81,1.76-.1,4.74,0,9.49-.07,14.24,0,1.26.36,1.59,1.57,1.54,2.15-.1,4.31,0,6.46-.05,1,0,1.28.31,1.25,1.29-.06,2.34-.11,4.68,0,7,.07,1.41-.45,1.61-1.71,1.6q-24.67-.06-49.35,0c-15.06,0-30.13,0-45.19,0-1.36,0-1.87-.24-1.78-1.72.15-2.34.08-4.69,0-7,0-.91.26-1.19,1.18-1.17,2.21.06,4.43,0,6.64.05,1.21.06,1.46-.34,1.44-1.48-.06-4.62.09-9.24-.08-13.86-.06-1.93.57-2.23,2.32-2.21,8,.1,16.08,0,24.11.08,1.38,0,1.8-.27,1.78-1.73-.08-8.23,0-16.46,0-24.68,0-1-.08-1.63-1.14-2C75.06,98.52,67.84,92,61.8,84.14a4.24,4.24,0,0,0-4.2-1.9C37.07,83.36,21.3,75.3,10.81,57.47,5,47.65,2.13,36.87.71,25.63.57,24.58.78,23.38,0,22.45ZM52.36,69.54c-.42-.85-.71-1.47-1-2.08a97.69,97.69,0,0,1-6.53-15.85A135,135,0,0,1,39.49,24c-.09-1-.38-1.53-1.58-1.52q-11.67.08-23.33,0c-1.12,0-1.4.31-1.24,1.41,1.37,9.6,3.76,18.87,8.66,27.35C28.69,62.85,38.73,68.88,52.36,69.54Zm89.74,0a39.07,39.07,0,0,0,13.21-2.74c9.93-4.07,15.91-11.9,20.06-21.38A80.66,80.66,0,0,0,181,24.31c.2-1.42,0-1.84-1.53-1.82-6.58.08-13.16,0-19.75,0-4.74,0-4.71,0-5.19,4.7A115.11,115.11,0,0,1,146,61.36C144.81,64.07,143.45,66.7,142.1,69.54Z" style="fill:#030303"/></g></g></svg>