<svg xmlns="http://www.w3.org/2000/svg" viewBox="0 0 384 384"><g id="Layer_2" data-name="Layer 2"><g id="Layer_1-2" data-name="Layer 1"><path d="M0,257.25c1.78-4.49,1.71-9.37,2.94-14q17.28-64.95,81.51-84.52a10.64,10.64,0,0,1,11.85,3.39,10.78,10.78,0,0,1,1.53,12.57,95.15,95.15,0,0,0-9.5,29.3c-3.67,26.32,2.43,50.15,19,70.8,19.19,23.87,44.54,35.31,75.18,34.83a86,86,0,0,0,20.28-3.06c5.05-1.32,9.2-.06,12.34,3.93s3.15,8.54.69,13c-16.74,30-41.6,49.44-75.1,57.52-5.11,1.24-10.33,2-15.5,3h-22.5c-1.86-1.55-4.23-1.05-6.32-1.38-45.51-7.09-83.3-42.41-93.53-87.37-1.06-4.65-1.15-9.5-2.9-14Z" style="fill:#030303"/><path d="M384,114.75q-9.22,13.25-18.46,26.48a7,7,0,0,0-1.05,4.24c-.13,8.87-.33,17.74-.46,26.61-.08,6.14-3.08,10-8.86,11.94-8.23,2.78-16.38,5.82-24.63,8.52a9.55,9.55,0,0,0-5,3.64q-7.49,10.06-15.08,20c-4.58,6-8.28,7.22-15.63,5-7.73-2.33-15.49-4.62-23.17-7.1a11.5,11.5,0,0,0-7.53-.1c-8.15,2.65-16.38,5.06-24.59,7.5-6,1.78-10,.54-13.84-4.44-5.32-6.92-10.56-13.92-15.78-20.91a9.78,9.78,0,0,0-5-3.67c-8.25-2.73-16.4-5.81-24.66-8.54-5.84-1.93-8.77-5.77-8.87-11.89-.14-8.62-.37-17.24-.43-25.86a10.12,10.12,0,0,0-1.93-6.21c-5.1-7.08-10-14.28-15-21.47-3.67-5.32-3.67-9.54,0-14.84q7.54-10.93,15.22-21.77A9,9,0,0,0,171,76.41c.05-8.62.16-17.24.45-25.86.23-7.1,2.6-10.07,9.22-12.36,8.11-2.79,16.2-5.64,24.32-8.39a9.19,9.19,0,0,0,4.68-3.42c4.65-6.34,9.53-12.51,14.16-18.86A26.16,26.16,0,0,1,231.75,0h6.75c9.28,3.7,19,5.91,28.51,9a2.57,2.57,0,0,0,1.48,0C278,6,287.71,3.69,297,0h6.75c3.87,2.13,6.44,5.53,9,9,4.36,5.93,8.9,11.73,13.27,17.64a7.83,7.83,0,0,0,4.11,2.93c8.23,2.77,16.41,5.68,24.6,8.59,6.9,2.45,9.06,5.29,9.29,12.69q.41,12.74.43,25.47a9.79,9.79,0,0,0,1.89,5.84c5.9,8.6,12.25,16.9,17.66,25.84ZM267.56,182.28A71.41,71.41,0,0,0,339,111.33c.15-39-31.86-71.22-71.05-71.41-39-.2-71.33,32-71.43,71A71.42,71.42,0,0,0,267.56,182.28Z" style="fill:#080707"/><path d="M0,98.25c2.18-3,4.15-6.14,8.12-7.12a11.41,11.41,0,0,1,11.35,3.06c3.57,3.49,7.05,7.07,10.94,11,1.3-7,2.36-13.62,4.68-20,13.7-37.51,40-60.29,79.27-68.06,11-2.19,22.15-1.4,33.24-1.29,5.73.05,10.06,5.57,9.9,11.54a11.12,11.12,0,0,1-10.73,10.83c-7.86.25-15.72-.23-23.59.57a78.71,78.71,0,0,0-67.7,57.13c-.58,2.14-1,4.32-1.57,6.48l.94.77c2.46-2.73,4.81-5.57,7.39-8.18,5.29-5.36,12.17-5.75,16.93-1.1s4.5,11.68-.74,17Q64.3,125.1,50.07,139.21c-5.68,5.63-12,5.57-17.75-.11-9.39-9.34-18.7-18.76-28.13-28.06-1.81-1.78-2.89-4-4.19-6Z" style="fill:#080707"/><path d="M384,285c-4.83,8.7-12.36,10.91-18.77,5.45-1.51-1.3-2.88-2.77-4.27-4.21-2.33-2.41-4.61-4.86-7.44-7.84-1.88,13.67-5.49,26-12,37.25-17.26,29.92-42.9,47.45-77.29,52-9.1,1.19-18.22.58-27.33.57-6,0-10.51-5.31-10.41-11.45a11.06,11.06,0,0,1,10.6-11c7.86-.28,15.72.23,23.59-.57a78.57,78.57,0,0,0,67.87-57.44c.55-2,1-4.07,1.52-6.11l-.82-.68c-2.57,2.76-5.06,5.6-7.73,8.26-5.15,5.13-12,5.44-16.68.88s-4.52-11.69.7-16.94Q319.7,259,333.92,244.8c5.66-5.63,12-5.6,17.76.09,9.4,9.33,18.71,18.76,28.14,28.06,1.81,1.79,2.88,4,4.18,6.05Z" style="fill:#080707"/><path d="M267.59,159.89c-27.34-.11-48.68-21.88-48.59-49.57.09-26.44,22.25-48.13,49.09-48,27.07.1,48.55,22.22,48.41,49.84C316.36,138.44,294.29,160,267.59,159.89Z" style="fill:#030303"/></g></g></svg>