<svg xmlns="http://www.w3.org/2000/svg" viewBox="0 0 206.5 308.32"><defs><style>.cls-1{fill:#4f46e5;}</style></defs><g id="Layer_2" data-name="Layer 2"><g id="Layer_1-2" data-name="Layer 1"><path class="cls-1" d="M105,0c3,1.11,5,3.28,6.72,5.94q46.17,70.86,92.47,141.63c3,4.52,3.07,8.44.07,13q-46.76,71-93.34,142.15c-4.93,7.53-11.62,7.47-16.55-.13q-46-70.93-92.14-141.84c-3-4.65-3-8.61,0-13.25q46-70.23,91.82-140.63c1.81-2.77,3.76-5.28,6.72-6.86Zm-2,24.58c-.48.7-1,1.4-1.47,2.12Q60.64,89.15,19.66,151.58c-1.22,1.84-1.31,3.1-.07,5q41,62.4,81.86,124.91c1.52,2.34,2.1,2.25,3.59,0q40.67-62.26,81.52-124.41c1.41-2.14,1.55-3.52.08-5.74q-27.24-41.25-54.25-82.65-13.83-21.12-27.68-42.22C104.29,25.81,104.08,25,103,24.58Z"/></g></g></svg>