<svg xmlns="http://www.w3.org/2000/svg" viewBox="0 0 349.41 349.47"><defs><style>.cls-1{fill:#3e7abe;}.cls-2{fill:#f05130;}.cls-3{fill:#22b24c;}.cls-4{fill:#fed504;}.cls-5{fill:#d84327;}.cls-6{fill:#189a49;}</style></defs><g id="Layer_2" data-name="Layer 2"><g id="Layer_1-2" data-name="Layer 1"><path class="cls-1" d="M228.26,266.74c19.52-11.83,34.3-27.92,43.7-48.81.71-1.56,1.31-3.17,2-4.8-1.52-.8-2.89-.45-4.2-.45q-37,0-74.07,0c-8.85,0-13.1-4.21-13.11-13q0-21.14,0-42.28c0-8.61,4.27-13,12.77-13H334.88c7.93,0,12.22,3.74,13.18,11.78,5.89,49.31-7.54,92.93-39.1,131.05a170.1,170.1,0,0,1-42.47,36.27c-1.37.85-2.83,1.55-4.25,2.32Q245.25,296.28,228.26,266.74Z"/><path class="cls-2" d="M175.13,68.35c-39.49,1-69.81,18.23-91.15,51.41-.4.62-.89,1.18-1.34,1.77l-58.85-34A154.83,154.83,0,0,1,54.47,48.27Q104.54,1.18,173.35,0c.62,0,1.24.06,1.86.09Q175.18,34.23,175.13,68.35Z"/><path class="cls-3" d="M175.19,349.44c-34.29.17-65.83-9.18-94.64-27.62a172.66,172.66,0,0,1-55-56.52c-.64-1.05-1.12-2.19-1.68-3.29l58.8-34c5.3,7.82,10.69,15.58,17.52,22.22,20.89,20.3,45.92,30.5,75,31Q175.17,315.32,175.19,349.44Z"/><path class="cls-4" d="M82.63,228.05l-58.8,34A148.21,148.21,0,0,1,5.66,218.52q-16.74-67,16.13-127.87c.58-1.08,1.33-2.08,2-3.11l58.85,34c-4.77,9.43-9.15,19-11.45,29.42-5.75,26.05-2.42,50.86,10.25,74.38C81.91,226.2,82.23,227.14,82.63,228.05Z"/><path class="cls-5" d="M175.13,68.35q0-34.12.08-68.26c30.12-.35,58.15,7.42,84.41,21.9a172.88,172.88,0,0,1,29,20.29c6,5.14,6.5,12.29.94,17.93q-15.48,15.74-31.2,31.21c-5.22,5.16-11.09,5.3-17,.55a106.34,106.34,0,0,0-59.4-23.25c-.47-.65-1-.69-1.47-.06C178.68,68.7,176.88,69,175.13,68.35Z"/><path class="cls-6" d="M175.19,349.44q0-34.11-.05-68.21a1.59,1.59,0,0,1,1.62-.21h.65l2.33-.09c.24.32.46.29.67,0a107,107,0,0,0,45.51-13.07c.75-.41,1.56-.72,2.34-1.08q17,29.53,34,59.09c-8.11,5.6-17.13,9.36-26.28,12.77C216.37,345.88,196.17,349.91,175.19,349.44Z"/><path class="cls-2" d="M180.46,68.66c.51-.63,1-.59,1.47.06Z"/><path class="cls-3" d="M177.41,281h-.65A.47.47,0,0,1,177.41,281Z"/><path class="cls-3" d="M180.41,280.89c-.21.32-.43.35-.67,0A.56.56,0,0,1,180.41,280.89Z"/></g></g></svg>