<svg xmlns="http://www.w3.org/2000/svg" viewBox="0 0 178.88 238.57"><defs><style>.cls-1{fill:#010101;}</style></defs><g id="Layer_2" data-name="Layer 2"><g id="Layer_1-2" data-name="Layer 1"><path class="cls-1" d="M53.53,238.57c-4.68-2.21-9.7-3.45-14.56-5.12-7.9-2.71-15.86-5.28-23.78-7.95-5.52-1.86-7.76-5.84-6.51-11.59,4.7-21.58,9.17-43.21,13-65,1.82-10.3,3-20.72,4.81-31,2.16-12.33,6.21-24,13.85-34.12A52.48,52.48,0,0,1,72,63.63a77,77,0,0,1,39.34,1.19c14.82,4.47,25.49,14,32.64,27.59,5.56,10.58,8.21,22,9.74,33.75,2.5,19.24,6.22,38.26,10.06,57.25,2.11,10.41,4.4,20.77,6.58,31.16,1,4.68-1.12,8.92-5.6,10.47-12.8,4.42-25.67,8.65-38.5,13-.62.21-1.44-.29-1.86.55h-3.73c-.25-.7-1-.65-1.5-.92a8.79,8.79,0,0,1-5-7.57C113,213,112,195.83,110.79,178.72c-.38-5.38,1.83-8.79,6.64-11,7.72-3.57,15.37-7.31,23-11,4.39-2.13,5.61-5.59,3.57-10-1.67-3.58-3.4-7.13-5.12-10.68-2.48-5.12-5.67-6.27-10.74-3.84-7.69,3.67-15.33,7.43-23,11-4.54,2.1-6.63,5.38-6.55,10.43.15,10,0,20,.05,30a6.38,6.38,0,0,1-.93,4c-1.77,2.45-3.48,5-5.3,7.37s-4.11,2.41-5.91,0c-1.55-2-2.93-4.2-4.51-6.21a8.49,8.49,0,0,1-1.76-5.61c.07-10,0-20,.06-30.06,0-4.52-1.81-7.71-5.9-9.66-8.1-3.86-16.17-7.79-24.29-11.63-4.27-2-7.72-.77-9.84,3.49-1.78,3.61-3.51,7.24-5.24,10.88-2.31,4.85-1.09,8.29,3.78,10.64C46.52,160.62,54.25,164.38,62,168c4.38,2.06,6.37,5.36,6,10.19C67,194.81,65.82,211.38,64.94,228c-.29,5.43-2.37,9.06-7.68,10.6Z"/><path class="cls-1" d="M66.64,15.21c-.19-3.56-.3-7-.59-10.42-.17-2,.44-2.89,2.56-3.2,39.75-5.78,75,4.16,105.64,30.17.89.75,1.77,1.52,2.63,2.3,2.56,2.35,2.68,4.5.23,7-5.46,5.53-11,11-16.47,16.49q-4.53,4.53-9.06,9.06c-2.79,2.77-4.45,2.9-7.4.36A84.29,84.29,0,0,0,121,52.5,82.82,82.82,0,0,0,35.34,66.38c-3.81,3.27-5.1,3.17-8.61-.34L2.51,41.82C-1,38.34-.82,36.61,2.9,33.25a134,134,0,0,1,28.46-19.6c1.84-1,3-.81,4.49.6,4.42,4.26,8.95,8.4,13.47,12.55.58.54,1.11,1.7,2,1.23s.37-1.71.24-2.54c-.81-5.21-1.7-10.41-2.58-15.61-.62-3.63-.55-3.74,2.93-5.06A46.63,46.63,0,0,1,60.07,3,2.11,2.11,0,0,1,62.83,4.7c1,3.11,1.91,6.22,2.91,9.31C65.86,14.4,65.85,14.94,66.64,15.21Z"/></g></g></svg>