<svg xmlns="http://www.w3.org/2000/svg" viewBox="0 0 40.11 40.11"><defs><style>.cls-1{fill:#fff;}</style></defs><g id="Layer_2" data-name="Layer 2"><g id="Layer_1-2" data-name="Layer 1"><path class="cls-1" d="M0,19.69A19.67,19.67,0,0,1,19.75,0,19.85,19.85,0,0,1,40.11,19.81a19.84,19.84,0,0,1-19.86,20.3C8.75,40.19.08,31.44,0,19.69ZM13,35.26c7.13,3.33,14,2.09,19.28-3.36,5-5.16,6.21-12.25,3-18.24a5.29,5.29,0,0,0-5,2.39c.85,2.66,4.28,2.59,4.84,5.23-2.3.83-4.31-.51-6.32-.26-1.08,1.88,1.41,3.47.09,5.23-2.27.39-2.68-2.74-5.21-2.6a26.1,26.1,0,0,1-4,8.23c-.56-3.3.23-6.41-.59-9.34-2.81-.69-5.26,1.82-8.19.5,1.53-1.8,4.08-2.37,4.69-4.73-2.43-1.22-5.18-.54-7.32-2.24,2.61-1.54,5.68-.87,8.24-2.68L11.76,6.94c3.48-.54,5.35,2.83,8.3,2.74.89-1.43.18-3.4,1.72-4.51,1.64.92,1.2,3.46,3.34,4,1.3-1,3-1.74,3.29-3.72C20.93,1.19,11.08,2.71,6.65,8.68c-5.54,7.44-5,17,1.42,22.83,3.18-2,4.35-7,9.39-6.68C18.46,29.41,14.74,31.94,13,35.26Zm4.53-19.18a24.21,24.21,0,0,1,4.59,5.73c1.65-2,4.3-2.34,6.28-3.78-1.45-1.72-.45-4.61-2.6-5.66a17.58,17.58,0,0,0-6.83.87C20.81,15.41,18.12,15.29,17.57,16.08ZM30.48,6.93c-1.41,1.34-1.38,2.9-1.28,4.61a6.62,6.62,0,0,0,5.16-.16A7.43,7.43,0,0,0,30.48,6.93Z"/></g></g></svg>