<svg xmlns="http://www.w3.org/2000/svg" viewBox="0 0 383.37 384"><defs><style>.cls-1{fill:#010101;}</style></defs><g id="Layer_2" data-name="Layer 2"><g id="Layer_1-2" data-name="Layer 1"><path class="cls-1" d="M8.35,384C1.92,381-.17,376,0,369c.36-14.36.09-28.75.11-43.12,0-8.05,4.43-12.45,12.51-12.49,6.24,0,12.48,0,18.72,0a8.55,8.55,0,0,0,1.2-.24c-3.46-7.58.68-12.49,5.78-17.46,12.43-12.11,24.54-24.56,36.89-36.75,1.91-1.89,2.22-2.86.09-4.9-7.47-7.18-14.61-14.71-22.06-21.91-4.48-4.34-6.44-9.09-3.58-15.52H30.38c-8.85,0-13.17-4.26-13.19-13q0-22.5,0-45c0-8.34,4.34-12.76,12.65-12.79q22.46-.09,44.91,0c8.52,0,12.91,4.47,12.93,12.94q0,9.38,0,18.74a5.14,5.14,0,0,0,.19.89c6.31-2.94,11.18-.72,15.66,4,5.83,6.17,12,12,17.92,18.1a6.52,6.52,0,0,0,5.23,2.13c13.72-.09,27.44,0,41.17,0,9.16,0,13.36,4.26,13.36,13.58,0,13.75,0,27.5,0,41.24a6.18,6.18,0,0,0,2,4.92c6.25,6.11,12.39,12.33,18.55,18.53,5.26,5.28,5.95,8.09,3.69,15.45,6.65,0,13.2,0,19.75,0,8,0,12.64,4.45,12.68,12.43q.1,22.88,0,45.75c0,8.07-4.5,12.44-12.59,12.45q-22.83,0-45.66,0c-7.79,0-12.31-4.51-12.39-12.3-.06-6.61,0-13.22,0-20.24-6.84,3.18-11.66.47-16.18-4.27-6.8-7.13-14-13.91-20.81-21-2.07-2.17-3.15-2.45-5.42-.12C112.06,322,99,334.71,86.28,347.74c-4.39,4.48-9.09,6.39-15.66,3.6,0,6.33-.29,12.24.07,18.12.44,6.92-2,11.78-8.44,14.54Z"/><path class="cls-1" d="M383.37,91.5c-4,6.17-10,10.27-15.39,15q-81.06,71.1-162.22,142.09c-.46.4-.95.77-1.44,1.17-1.13-.78-.58-1.87-.58-2.76q-.08-16.31,0-32.61A30.49,30.49,0,0,0,201.43,202c-.92-2.11-.49-3.32,1-4.83,9.85-9.74,19.61-19.58,29.4-29.39q43.26-43.34,86.54-86.67c3-2.95,5.16-6.15,4.73-10.51a10.65,10.65,0,0,0-6.93-9.43A10.84,10.84,0,0,0,304.67,63c-1.06.87-2,1.9-3,2.87q-57,57.12-114,114.3c-2.16,2.17-3.81,3.16-6.94,1.74-3.74-1.71-7.93-1.95-12.08-1.93-11.44.05-22.88,0-34.37,0-.13-1.41.88-1.91,1.47-2.59Q211,91.19,286.12,4.93C288,2.74,290.44,1.46,292.8,0h81.59a13.34,13.34,0,0,1,9,9Z"/></g></g></svg>