<svg xmlns="http://www.w3.org/2000/svg" viewBox="0 0 282.33 383.26"><defs><style>.cls-1{fill:#070606;}.cls-2{fill:#030303;}</style></defs><g id="Layer_2" data-name="Layer 2"><g id="Layer_1-2" data-name="Layer 1"><path class="cls-1" d="M198.92,0c3.1,1,6.3,1.8,9.26,3.11,15.15,6.7,24,24,20.42,39.7-3.9,17.35-18.79,29.3-36,28.89-17.58-.41-33.2-14.29-34.9-31-2-19.15,9.21-35.43,27.34-39.88.67-.16,1.55.17,1.87-.8Z"/><path class="cls-2" d="M141.19,383.25q-56.41,0-112.84,0c-14.23,0-26.62-10.62-28.13-24C-1.5,344.07,7,331.51,21.47,327.62c2.14-.57,5.24.48,6.22-1.43,1.11-2.17.74-5.1,1-7.7C32.22,278.84,43.4,241.77,66,208.56,73.82,197,73.85,197,87.63,197c3.37,0,6.76.2,10.11-.06s4.48.58,4.41,4.19c-.25,12.47,0,24.94-.16,37.41,0,2.78.47,4,3.61,3.79,5.11-.29,10.25-.22,15.36,0,2.67.11,3.35-.77,3.32-3.35-.12-12.72,0-25.45-.13-38.17-.05-3.18.94-3.93,4-3.86,8.87.2,17.75.22,26.62,0,3.11-.08,3.65,1,3.64,3.8-.11,21.95,0,43.9-.15,65.85,0,3.15.78,4,3.88,3.82a144.14,144.14,0,0,1,15,0c2.79.14,3.52-.63,3.51-3.46-.13-21.83,0-43.65-.16-65.48,0-3.53.72-4.73,4.45-4.54,6.6.34,13.24.2,19.86,0a5.49,5.49,0,0,1,4.94,2.49c18.93,24.11,30.69,51.54,37.89,81.1A242.73,242.73,0,0,1,254.13,324c.13,2.22.78,2.87,3,3.07a28.14,28.14,0,0,1-2.74,56.12Q197.79,383.3,141.19,383.25Z"/><path class="cls-1" d="M113.07,125.17c3.62-14.67,14.33-23.69,27.85-23.89s24,8.49,28.47,23.9c.53-1.71.93-3.12,1.4-4.5,4.51-13.41,17.84-21.18,33-19.24,22.49,2.87,33,25.82,20.54,44.75-5.76,8.73-11.67,17.37-17.4,26.12a5.06,5.06,0,0,1-4.79,2.68q-60.93-.11-121.86,0c-2,0-3.41-.41-4.62-2.27-6-9.19-12.24-18.18-18.2-27.37-10.92-16.87-2-39.47,17.25-43.31,19.11-3.79,33.68,5.21,37.76,21.75C112.57,124.11,112.76,124.42,113.07,125.17Z"/><path class="cls-1" d="M141.28,79.19A48.26,48.26,0,0,0,115,86.39c-1.21.72-2.11,1.33-3.63.35a49,49,0,0,0-30.27-7.5c-3,.19-4-.42-3.81-3.72,1-16.49,15.24-31.25,32-32.78,17.82-1.63,34.2,9.56,38.57,26.35.09.36.11.74.2,1.1C150.29,79.21,150.29,79.21,141.28,79.19Z"/></g></g></svg>