<svg xmlns="http://www.w3.org/2000/svg" viewBox="0 0 90.53 109.59"><defs><style>.cls-1{fill:#4f46e5;}</style></defs><g id="Layer_2" data-name="Layer 2"><g id="Layer_1-2" data-name="Layer 1"><path class="cls-1" d="M0,109.59Q0,99.41,0,89.22a1.91,1.91,0,0,1,.13-.83c1.64-3.23,2.91-6.68,5.13-9.6,5-6.63,11.73-10.24,20.07-10.36,9.72-.15,19.44-.05,29.16,0a6.88,6.88,0,1,1-.08,13.75c-6.21,0-12.43,0-18.65,0-.82,0-1.1.17-1,1,.07,1.56,0,3.14,0,4.71,0,.56.14.72.71.72,6.61,0,13.22.09,19.83-.06,8.86-.19,15-9.64,11.72-18a1.48,1.48,0,0,1,.44-1.9c1.68-1.61,3.26-3.31,5-4.9a10.62,10.62,0,0,1,17.76,4.81,10.07,10.07,0,0,1-2.54,10c-3.45,3.61-7,7.1-10.58,10.64-3.73,3.75-7.48,7.48-11.2,11.23a2.17,2.17,0,0,1-1.69.71c-9.43,0-18.86,0-28.3,0-.86,0-1.15.15-1.12,1.08.08,2.47,0,4.93,0,7.4Z"/><path class="cls-1" d="M56.93,62.14a17.59,17.59,0,0,0,1.86-8.33,21.43,21.43,0,0,0-4-11.23A51.46,51.46,0,0,0,42.06,29.69c-.34-.26-.61-.38-1-.07C35,34.11,29.65,39.18,26.27,46a17.42,17.42,0,0,0-.5,15.48,3.56,3.56,0,0,1,.15.46,29,29,0,0,0-5.47.46,1,1,0,0,1-1-.39,29.58,29.58,0,0,1-8-17.57,27.86,27.86,0,0,1,8.46-23.51c7-7,14.19-13.79,21.33-20.63.62-.59.83-.23,1.19.19,4.3,5,8.61,9.93,12.88,14.93.57.67.92.77,1.57.14s1.62-1.38,2.5-2.11c3,4.73,6.74,8.89,9.22,13.86a30.53,30.53,0,0,1-6.23,36,1,1,0,0,1-1.52.2A12.11,12.11,0,0,0,56.93,62.14Z"/><path class="cls-1" d="M41.45,62c-2.25,0-4.51,0-6.75,0a1.73,1.73,0,0,1-1.54-.73c-3-3.85-3.19-8-1.33-12.39,2-4.68,5.46-8.22,9.32-11.41a.48.48,0,0,1,.72,0c4.5,3.8,8.55,7.95,10.11,13.86a10.77,10.77,0,0,1-2.21,10,1.56,1.56,0,0,1-1.36.62C46.09,61.94,43.77,62,41.45,62Z"/></g></g></svg>