<svg xmlns="http://www.w3.org/2000/svg" viewBox="0 0 335.27 335.07"><defs><style>.cls-1{fill:#0d0c0c;}</style></defs><g id="Layer_2" data-name="Layer 2"><g id="Layer_1-2" data-name="Layer 1"><path class="cls-1" d="M273.3,281.52c-6.65-6.6-13.12-13-19.56-19.44-4.26-4.25-4.45-6.11-.65-10.85,4.43-5.55,9.41-10.64,13.53-16.46,7.56-10.67,12.65-22.47,16.26-35,1.35-4.66,4.05-6.63,7.63-5.68,3.94,1.06,5.44,4.19,4.1,8.92a130,130,0,0,1-27.44,50.74c-1.64,1.87-1.92,2.79,0,4.63,5,4.71,9.65,9.7,14.55,14.7a151.23,151.23,0,0,0,34.61-59.84c11.88-39.49,8.69-77.86-9.28-115-1.4-2.91-2.42-3.06-5.05-1.39-6.3,4-12.78,7.71-19.3,11.33-7.09,3.93-8.72,3.47-13-3.27a110.88,110.88,0,0,0-13.44-17.74c-5.06,5.13-10,10.21-15,15.24-1,1.06-1.61,1.73-.3,3.26a90,90,0,0,1,16.76,28.87c.58,1.62,1.06,2.24,3.12,1.64,8.7-2.53,17.48-4.78,26.24-7.07,4.14-1.08,6.85.34,8,4.42a117.91,117.91,0,0,1,4.36,33.94,5.74,5.74,0,0,1-5.88,5.92c-3.5.05-5.92-2.31-6.07-6.11a175.29,175.29,0,0,0-2.15-21.92c-.43-2.6-1.18-2.89-3.64-2.18-8,2.33-16,4.34-24.08,6.47-5.44,1.44-7.83,0-9.43-5.38-9.89-33.62-33-52.56-66.67-59.24-42.63-8.47-89.68,21-96.79,70.4-5.27,36.66,13.95,70.63,48.24,87.63,43.25,21.45,99.73-1.39,114.87-51.41.25-.83.46-1.68.75-2.49,1.33-3.71,4.57-5.45,7.91-4.28s4.68,4.4,3.59,8.28a95.62,95.62,0,0,1-19.52,36.55,91.25,91.25,0,0,1-17.66,16c-1.7,1.17-1.89,1.93-.81,3.75,4.48,7.46,8.76,15,13.08,22.59,2.34,4.11,1.76,7.52-1.51,9.45s-6.63.79-9-3.23c-4.31-7.42-8.6-14.85-12.79-22.33-1-1.86-1.73-2.68-4.16-1.56a92.84,92.84,0,0,1-56.07,7.39c-2.07-.36-3,0-3.59,2.36-1.37,5.92-3.08,11.76-4.81,17.59-.61,2.09-.13,2.86,2.05,3.21a171,171,0,0,0,21.54,2.17c4.79.16,6.83,2.16,6.84,6.86q0,17,0,34.06c0,4.92-2.12,7.08-7,7-50.47-.93-92.44-20.44-125.82-58.17-16.38-18.52-27.64-40-34.36-63.81-1.7-6-.11-8.86,5.93-10.42,7.81-2,15.6-4.1,23.42-6.09,2.36-.6,3.26-1.3,2.7-4.29Q29.58,145,52.89,102.84c2.33-4.2,5.92-5.41,9.19-3.22,2.88,1.93,3.54,5.26,1.5,8.9a128.79,128.79,0,0,0-12.06,29.15c-4.61,16.85-4,33.75-1.09,50.73a72.55,72.55,0,0,1,1.27,11.11c.07,4-1.93,5.85-5.52,6.77-8.29,2.14-16.53,4.48-24.84,6.57-1.77.44-2.25,1-1.68,2.73a154.15,154.15,0,0,0,33.89,57.63c6.62-6.67,13.1-13.24,19.62-19.77,4.11-4.11,6.81-4.17,10.85-.26a119.48,119.48,0,0,0,22.48,17.25c1.87,1.11,3.67,2.28,4.17,4.52a5.89,5.89,0,0,1-1.86,6.12,5.63,5.63,0,0,1-6.6.81,91,91,0,0,1-20-14.24c-2.7-2.42-4.11-2.33-6.43.29-3.63,4.1-7.59,7.93-11.6,11.68-1.82,1.69-1.68,2.56.14,4.18a154.26,154.26,0,0,0,60.17,33.29A166.22,166.22,0,0,0,159.34,323c1.71.12,2.43-.08,2.39-2.06-.13-6.48-.1-13,0-19.46,0-1.69-.34-2.32-2.2-2.42a131.47,131.47,0,0,1-23.57-3.65c-6.23-1.51-7.8-3.93-6.18-10.23,2.12-8.17,4.25-16.34,6.63-24.43.63-2.14,0-2.73-1.76-3.37A94.18,94.18,0,0,1,89.41,222.7c-1.37-1.92-2.21-1.89-4-.8-7.37,4.39-14.83,8.63-22.27,12.89-4.28,2.45-7.8,1.83-9.7-1.62s-.59-6.46,3.56-8.88c7.2-4.19,14.38-8.42,21.67-12.43,2.34-1.29,2.91-2.16,1.74-5q-22.59-54.16,13.48-100.6c1.45-1.87,1.49-2.7-.19-4.36Q74.57,83.2,55.73,64.2c-1.93-2-2.85-2.14-4.76,0a156.43,156.43,0,0,0-34.54,66.52c-2.92,11.8-3.95,23.8-4.48,35.88-.22,5.22-2.33,7.28-6.74,6.73C1.87,173,0,170.5,0,166.42a163.7,163.7,0,0,1,11.45-60.1,166.27,166.27,0,0,1,36.71-56.6c3.73-3.79,6.63-3.78,10.53.11C73.08,64.2,87.49,78.54,101.78,93c2,2,3,2.14,5.22.23a82.3,82.3,0,0,1,26.54-15.6c3.14-1.11,3.41-2.45,2.54-5.31-2.24-7.36-4.17-14.81-6.21-22.23-1.55-5.65-.36-8.26,5.16-10.58,7-2.94,14.45-3.67,21.93-3.81,24.06-.44,47.34,3.35,69.28,13.62,2.13,1,2.6,0,3.37-1.36,3-5.17,5.85-10.41,9-15.47,1.41-2.28.93-3.19-1.36-4.32a155.15,155.15,0,0,0-137.52-.75c-4.54,2.18-4.54,2.19-2,6.68,4,6.89,8,13.75,11.9,20.69,2.47,4.4.7,8.55-3.83,9.6-2.76.64-4.64-.55-6-2.72q-4-6.49-7.88-13.1Q87,40,82.16,31.43c-2.49-4.44-1.68-7.35,2.77-9.9A157.54,157.54,0,0,1,140.15,2.17c32-4.85,63.27-1.63,93.49,10.32a64.51,64.51,0,0,1,16.94,9.27c4.56,3.66,5,5.49,2.18,10.52-5.44,9.64-11,19.19-16.66,28.71-2.28,3.85-5.2,4.62-9.18,2.4a120.27,120.27,0,0,0-82.2-13.48c-1.63.29-2.07,1-1.65,2.58,1.75,6.34,3.51,12.67,5.16,19,.59,2.27,2.16,1.65,3.56,1.41a93.74,93.74,0,0,1,48.84,4.44A92.15,92.15,0,0,1,228.9,93.71c1.72,1.46,2.56,1.4,4.09-.18,6-6.19,12.09-12.25,18.19-18.32,4-4,6.79-3.89,10.78.19a121.91,121.91,0,0,1,15.29,18.85c1.1,1.69,1.85,2,3.68.86,5.17-3.21,10.44-6.3,15.83-9.13,2.46-1.28,2.12-2.3.84-4.21a159.31,159.31,0,0,0-17.5-21.85c-.7-.72-1.42-1.41-2.08-2.16-2.67-3-2.76-6.58-.26-9s6-2.45,8.93.48a148.64,148.64,0,0,1,13.59,15.43c19.83,25.93,31.59,55.06,34.36,87.64,6.91,81.34-43.26,154.13-121.45,176.4-5.92,1.69-8.54.25-10.16-5.73q-4.16-15.27-8.19-30.56a11.19,11.19,0,0,1-.6-4.39,5.77,5.77,0,0,1,5.4-5.31c3.22-.35,5.78,1.54,6.74,5.19,2.12,8.05,4.25,16.1,6.11,24.21.68,3,1.55,3.91,4.76,2.8A156.5,156.5,0,0,0,273.3,281.52Z"/><path class="cls-1" d="M125.6,145.44c.31-23.06,14.16-39.56,35.64-43.61,21.06-4,43.55,11.63,47.57,33,2.11,11.25.78,22.13-6.06,31.33-8.4,11.28-11.57,23.63-11.2,37.4.29,10.28-6.26,19-16,22.42C160,231.4,143.44,220,143.84,203.63c.35-14-2.94-26.47-11.36-37.74C127.77,159.58,125.13,152.36,125.6,145.44Zm41.87,45.92c3.36,0,6.73-.08,10.09,0,1.57.05,2-.42,2.25-2a61.94,61.94,0,0,1,11.8-28.22A29.42,29.42,0,0,0,197,138.22c-2.54-16-18.23-26.84-35.12-24-15.45,2.63-26.63,19-23.68,34.43,1.22,6.36,4.92,11.33,8.34,16.49,4.4,6.6,7.7,13.68,8.5,21.61.4,3.93,1.93,5.23,5.75,4.64A44.28,44.28,0,0,1,167.47,191.36Zm-11.56,12.09c.49,6.88,5.23,11.7,11.56,11.84s11.39-4.76,12-11.84Z"/></g></g></svg>