<svg xmlns="http://www.w3.org/2000/svg" viewBox="0 0 300.53 297.86"><defs><style>.cls-1{fill:#4f46e5;}</style></defs><g id="Layer_2" data-name="Layer 2"><g id="Layer_1-2" data-name="Layer 1"><path class="cls-1" d="M0,60.46V47.55c.88-.33.54-1.15.66-1.76C4,28.7,12.47,14.88,27.29,5.42c12.53-8,24.4-7.06,36,2.3A68.48,68.48,0,0,1,77.12,23.51c1.21,1.82,2.08,2.14,4,1A39.1,39.1,0,0,1,102,18.73q48.12.16,96.24,0a39.72,39.72,0,0,1,21.15,5.78c1.76,1.06,2.63,1.05,3.85-.82a66.88,66.88,0,0,1,15.2-16.94c8.62-6.62,17.92-8.66,28.29-4.52,10.91,4.35,18.81,12.13,24.78,21.93,7.4,12.15,11.1,25.22,7.74,39.46-2.9,12.27-10.27,21.77-19.74,29.73-1.66,1.39-2.16,2.46-1.35,4.61a304.68,304.68,0,0,1,15.61,56.6c2.75,16.47,3.93,33,1.42,49.61-2.06,13.66-7.27,25.74-16.71,36.07-14.37,15.71-31.7,27-50.94,35.75-19,8.63-39.23,13.47-59.17,19.23a63.37,63.37,0,0,1-36.35,0c-17.57-5.19-35.43-9.36-52.45-16.37-20.35-8.39-38.91-19.41-54.45-35.2-8.73-8.88-15.23-19-18.2-31.21-4.38-18-3.58-36.1-.86-54.17C9.21,137.52,15,117.47,22.33,97.88c.74-2,.47-3-1.18-4.39A60.87,60.87,0,0,1,2.77,68.88C1.67,66.11,1.69,63,0,60.46ZM95.32,201.15c.06,10.58,1.85,20.07,6.83,28.79,7,12.21,17.83,19.63,30.55,24.76,5.83,2.36,11.87,4.39,18.16,3.87,16-1.32,30-7.69,40.7-19.59,16.4-18.28,16.77-39.53,8.78-61.45-4.5-12.38-13.32-21.7-23.66-29.58-13.58-10.34-33.42-12-47.21-3.55C108.16,157.52,95.84,176.22,95.32,201.15Zm3.46-64.92a22.81,22.81,0,0,0,21.51-16c1.22-3.94.33-7.24-3.12-9.5q-11.86-7.8-24-15.25a7.72,7.72,0,0,0-9.72.91,22.77,22.77,0,0,0,15.28,39.86Zm104.72,0c7.74-.38,14.87-4.49,19-13,3.94-8.21,2.84-16.17-2.35-23.5-3.85-5.45-8.24-7-12.68-4.3-8.17,5-16.21,10.14-24.2,15.39-3.33,2.2-4.19,5.43-3,9.27C183.06,129.6,192,136.24,203.5,136.22Z"/><path class="cls-1" d="M150.43,161q10.56,0,21.12,0c6.52,0,11.88,3.17,13.79,8.48,2.16,6,.69,11.26-3.92,15.72-7.45,7.2-14.82,14.49-22.22,21.74-.48.46-1.13.82-1.13,1.6q0,5.43,0,10.85c0,1.26,1.14,1.48,1.94,1.94,5.23,3,10.5,6,15.73,9,4.56,2.66,6.08,7.11,3.85,11.07-2.34,4.17-6.93,5.21-11.66,2.54-5.26-3-10.51-6-15.7-9.07a3.41,3.41,0,0,0-4,0q-8.19,4.85-16.5,9.46a7.47,7.47,0,0,1-9-.78,7.66,7.66,0,0,1-2.38-8.46,8.57,8.57,0,0,1,4.2-4.68c5.26-3,10.45-6.08,15.75-9,1.55-.86,2-1.87,2.22-3.61,1.05-7-1.37-12.08-6.87-16.6-6-5-11.27-10.83-16.81-16.34-4.49-4.46-6-10.36-3.67-15.51,2.58-5.77,7.31-8.4,13.54-8.43C136,160.92,143.2,161,150.43,161Z"/></g></g></svg>