<svg xmlns="http://www.w3.org/2000/svg" viewBox="0 0 383.25 383.25"><defs><style>.cls-1{fill:#010101;}.cls-2{fill:#020202;}</style></defs><g id="Layer_2" data-name="Layer 2"><g id="Layer_1-2" data-name="Layer 1"><path class="cls-1" d="M166.17,383.25c-.24-.25-.43-.65-.72-.73-14.35-4.09-20.39-14.58-21.58-28.52-.47-5.44-.05-11-.2-16.44,0-1.85.58-2.26,2.33-2.25q45.62.07,91.23,0c1,0,2.37-.45,2.3,1.45-.28,7.83.8,15.73-.59,23.5a27.08,27.08,0,0,1-22.6,22.31c-.29,0-.51.42-.77.64Z"/><path class="cls-2" d="M383.25,195.37c-3.77,7.06-9.87,8.76-17.44,8.34-8.31-.47-16.67-.07-25-.12-7.41,0-12.94-5.32-12.81-12.14s5.44-11.76,12.76-11.8c8.95,0,17.93.31,26.87-.11,7.42-.34,12.65,2.2,15.62,9.09Z"/><path class="cls-1" d="M191.16,311.39c-15.21,0-30.43-.05-45.64.05-2.27,0-3.07-.56-3.61-2.9a48.1,48.1,0,0,0-18-28c-23.57-18.28-38.22-42.11-42.75-71.63-10-65,35-116.91,87.42-126.5,47.84-8.75,87.25,6.48,115.17,46.39,33.38,47.71,23.65,111.82-21.17,149-9.48,7.87-17.75,16.55-21,28.76-1.07,4-2.69,5-6.73,4.92C220.35,311.2,205.75,311.39,191.16,311.39Zm6.52-191.6c-8.16-.15-13.85,4.56-14.08,11.66s5.37,12.06,13.51,12.29c23.22.65,41.72,19.52,42.41,43.24.21,7.26,5.36,12.68,12,12.66,6.82,0,12-5.66,11.94-13.09C263.32,151,233.26,120.44,197.68,119.79Z"/><path class="cls-2" d="M203.6,27.44c0,5.1.05,10.21,0,15.31-.09,7.15-5.39,12.59-12.09,12.5s-11.79-5.42-11.84-12.38q-.1-15.3,0-30.62c.06-7,5.22-12.21,11.89-12.25s11.85,5.21,12,12.13c0,.25,0,.5,0,.75Z"/><path class="cls-2" d="M27.68,179.65c5.1,0,10.2-.07,15.31,0,6.92.11,12.25,5.36,12.25,12a12,12,0,0,1-12.23,12c-10.33.08-20.67.1-31,0a12,12,0,1,1,0-23.91C17.22,179.57,22.45,179.64,27.68,179.65Z"/><path class="cls-2" d="M98.72,86.85c-.36,4.72-2.41,8.46-6.91,10.59S82.61,99.19,79,95.72c-8-7.65-15.87-15.48-23.49-23.51-4.34-4.58-3.72-11.83.77-16.2s11.45-4.81,15.92-.57C80.3,63.16,88.12,71.19,96,79.18,98,81.21,98.58,83.93,98.72,86.85Z"/><path class="cls-2" d="M296.34,98.74c-4.7-.42-8.46-2.46-10.56-7s-1.7-9.2,1.78-12.84Q298.9,67,310.77,55.66A11.67,11.67,0,0,1,327,56c4.49,4.37,5.11,11.6.76,16.19-7.61,8-15.57,15.77-23.46,23.55C302.19,97.83,299.39,98.58,296.34,98.74Z"/><path class="cls-2" d="M296.32,284.52a12.55,12.55,0,0,1,8.78,3.64c7.3,7.31,14.68,14.55,21.9,21.95a11.93,11.93,0,1,1-16.72,17Q299,316.18,288.09,305a11.29,11.29,0,0,1-2.51-13.08C287.55,287.18,291.37,284.91,296.32,284.52Z"/><path class="cls-2" d="M64.71,330.7c-4.89-.33-8.69-2.37-10.82-6.83S52,314.66,55.5,311Q67,299,79,287.49c4.58-4.37,11.77-3.84,16.21.62s4.93,11.44.7,15.93c-7.69,8.14-15.75,15.94-23.73,23.8C70.16,329.84,67.44,330.45,64.71,330.7Z"/></g></g></svg>