<svg xmlns="http://www.w3.org/2000/svg" viewBox="0 0 384 96.25"><defs><style>.cls-1{fill:#040403;}</style></defs><g id="Layer_2" data-name="Layer 2"><g id="Layer_1-2" data-name="Layer 1"><path class="cls-1" d="M0,39.86c1.34-1,1.12-2.63,1.46-4C6.38,16.49,25.38-1.42,51.74.09c21,1.2,40,18.35,43.56,39.82,4.23,25.69-12.12,50-37.25,55.28C32.7,100.57,7.93,85,1.3,59.6,1,58.53,1.42,57,0,56.36Z"/><path class="cls-1" d="M384,56.36c-1.35.84-1.1,2.39-1.41,3.59-5.81,22.66-26,37.2-50.34,36.11-21-.93-39.93-18.23-43.56-39.77-4.37-25.88,12.89-51,38-55.38,27.12-4.7,51.51,12,56.55,38.63.09.51.15,1,.76,1.07Z"/><path class="cls-1" d="M192.07.11A48,48,0,1,1,144,48,47.8,47.8,0,0,1,192.07.11Z"/></g></g></svg>