<svg xmlns="http://www.w3.org/2000/svg" viewBox="0 0 384 383.31"><defs><style>.cls-1{fill:#080707;}.cls-2{fill:#030303;}</style></defs><g id="Layer_2" data-name="Layer 2"><g id="Layer_1-2" data-name="Layer 1"><path class="cls-1" d="M384,205.16c-1.66,4.56-1.43,9.41-2.14,14.12a186.58,186.58,0,0,1-30.08,77.53c-1.86,2.74-2.19,4.78-.84,8,5.42,12.88,3.47,25-5.78,35.44s-21.22,13.84-34.62,10c-13.09-3.78-21.2-12.92-23.81-26.22C282,300.07,304.21,279.35,328,285.32c3.17.79,4.47,0,6.12-2.58q29.73-46.43,26.83-101.38C356.93,106.54,303,42.84,229,26.56a165.23,165.23,0,0,0-95.93,7.08c-2.67,1-4,1.15-5.1-2.09a155.39,155.39,0,0,0-6-14.85c-.9-2-.72-3,1.47-3.8C150.75,2.63,178.82-1.8,207.9.67q73.61,6.24,124.36,59.82c26,27.46,42.08,60.11,48.75,97.33A143.78,143.78,0,0,1,383.28,176c0,.59-.09,1.27.72,1.49Z"/><path class="cls-1" d="M0,177.46c1.77-4.27,1.45-8.89,2.12-13.33A186.41,186.41,0,0,1,32.18,86.62c1.82-2.71,2.3-4.71.9-8-5.41-12.69-3.6-24.77,5.45-35.15S59.47,29.33,73,33.05,94.47,45.87,97.24,59.27C102.15,83,79.85,104,56.12,98.08c-3.11-.78-4.48-.15-6.16,2.45-16.05,24.88-25.21,52-26.84,81.55C19.24,252.88,57.39,316.3,122,345.82a163.42,163.42,0,0,0,80.4,14.5,167,167,0,0,0,49-10.75c2.71-1.05,3.58-.43,4.47,2.09,1.79,5,3.81,10,6,14.84,1,2.17.87,3.16-1.57,4.07-17.12,6.34-34.68,10.71-52.95,12-.68,0-1.55-.3-1.87.71h-30c-.31-1-1.18-.69-1.86-.76a189.09,189.09,0,0,1-29.4-5.08q-59.61-15.27-99.3-62.19C21.68,287.79,7.49,256.07,2.13,220.43c-.73-4.84-.49-9.82-2.13-14.52Z"/><path class="cls-2" d="M192.19,113.1a78.59,78.59,0,1,1-78.93,78.3C113.31,148.1,148.63,113.06,192.19,113.1Z"/></g></g></svg>