<svg xmlns="http://www.w3.org/2000/svg" viewBox="0 0 317.81 319.5"><g id="Capa_2" data-name="Capa 2"><g id="Capa_1-2" data-name="Capa 1"><path d="M0,159.86c.06-7.29,3.21-13.12,8.29-18.17q36-35.94,72-72Q111.51,38.5,142.72,7.27c9.08-9.11,22.45-9.75,32.34-1.4,1.24,1,2.37,2.22,3.52,3.36C222.33,53,266,96.85,309.93,140.38c8.88,8.79,12,27,.09,38.73-45.06,44.38-89.56,89.31-134.28,134-7.74,7.75-20.48,8.5-29.79,1.7a36.75,36.75,0,0,1-4.22-3.67Q73.95,243.47,6.2,175.74A20.71,20.71,0,0,1,0,159.86ZM127.34,97v127h31.57V184.85c7.09-.37,13.8-.54,20.48-1.09,26.78-2.21,44-21.43,43.14-48.12-.54-17.4-10.25-30.49-26.86-35.54a59.57,59.57,0,0,0-15.73-2.92C162.5,96.81,145.05,97,127.34,97Z"/><path d="M159.09,161.81V120c6.41.63,12.7.59,18.65,2,9.72,2.29,14.62,11.38,13.07,22.55-1.44,10.43-6.28,15.6-17.06,17.13C169,162.36,164.12,161.81,159.09,161.81Z"/></g></g></svg>