<svg xmlns="http://www.w3.org/2000/svg" viewBox="0 0 313.46 357.24"><defs><style>.cls-1{fill:#fff;}</style></defs><g id="Layer_2" data-name="Layer 2"><g id="Layer_1-2" data-name="Layer 1"><path class="cls-1" d="M313.34,118.73c0,21.91-.26,43.82.05,65.73.69,47.42-19.12,84.84-56.49,112.72C229.61,317.53,199,332.88,170.8,352c-10.29,7-17.62,7-28,0C117,334.81,89.56,320,63.87,302.57,22.2,274.36-.49,235.38,0,183.89.5,136.34.21,88.78,0,41.23c0-5.31,1.22-7.68,6.72-8.86Q79.58,16.74,152.3.52a20.93,20.93,0,0,1,9.48,0q72.75,16.1,145.58,31.84c4.91,1.05,6.15,3.05,6.1,7.89C313.2,66.44,313.34,92.59,313.34,118.73Zm-23.93,8.5c0-22.41-.2-44.83.14-67.24.09-5.3-1.52-7.15-6.6-8.26-39.56-8.64-79-17.6-118.56-26.43A30.68,30.68,0,0,0,150.5,25q-59.94,13.68-120,26.82c-5,1.09-6.62,2.94-6.58,8.28.28,40.84.74,81.69,0,122.52C23.1,225.8,41.71,258.46,76.6,282c24.89,16.81,51,31.86,76.47,47.81,2.69,1.69,4.65,1.75,7.4,0,25.89-16.24,52.52-31.39,77.68-48.69,33.93-23.33,52.38-55.66,51.33-97.92C289,164.59,289.41,145.9,289.41,127.23Z"/><path class="cls-1" d="M213.79,73.09v33H127v45.81c7.24-8.84,22-15.8,38.31-15.8,45.54,0,61.08,34.28,61.08,64.56,0,39.91-23,68.31-67.51,68.31-42.06,0-66.17-23.31-69.38-55.19h36.43c3.22,13.66,14.2,23.58,32.41,23.58,22,0,31.88-15.54,31.88-36.17,0-22-11-34-32.14-34-15.54,0-25.45,8.57-29.47,20.63H92.7V73.09Z"/></g></g></svg>