<svg xmlns="http://www.w3.org/2000/svg" viewBox="0 0 109.77 109.79"><defs><style>.cls-1{fill:#4f46e5;}</style></defs><g id="Layer_2" data-name="Layer 2"><g id="Layer_1-2" data-name="Layer 1"><path class="cls-1" d="M0,98.21c.23,0,.27-.22.3-.39a11.83,11.83,0,0,1,3.51-5.51q22.73-22.68,45.41-45.4a10.17,10.17,0,0,1,8.69-3.19,9.9,9.9,0,0,1,8.15,8.09,10.14,10.14,0,0,1-3.14,8.71q-23,23-46,46c-3.53,3.53-7.92,4.24-12.1,1.91a9.27,9.27,0,0,1-4.29-5.26c-.13-.38-.06-.87-.51-1.1Zm32.4-16.3.41-.38Q42.36,72,51.91,62.45c.41-.41.36-.58-.11-.84A8.83,8.83,0,0,1,48.16,58c-.29-.55-.49-.42-.84-.06q-9.49,9.51-19,19c-.33.34-.45.54,0,.93,1.26,1.21,2.48,2.46,3.72,3.7C32.1,81.66,32.24,81.77,32.4,81.91ZM9.53,103.36a3.56,3.56,0,0,0,2.59-1.14Q19.74,94.62,27.36,87c.47-.47.34-.69-.06-1.07C26.17,84.85,25,83.76,24,82.6c-.55-.61-.84-.55-1.39,0Q15.24,90,7.84,97.4a5.91,5.91,0,0,0-.85,1,3,3,0,0,0-.14,3.34A3.15,3.15,0,0,0,9.53,103.36Zm47-46.92a3.2,3.2,0,0,0,3.24-3.17A3.24,3.24,0,0,0,56.56,50a3.18,3.18,0,0,0-3.21,3.19A3.13,3.13,0,0,0,56.51,56.44Z"/><path class="cls-1" d="M107.21,0a5.91,5.91,0,0,1,1.68,1,3.19,3.19,0,0,1,.44,3.86q-4.42,8.9-8.88,17.76a3.4,3.4,0,0,1-3.27,2c-2.85,0-5.71,0-8.57,0a3.27,3.27,0,0,1-3.48-3.49c0-2.85,0-5.71,0-8.57a3.31,3.31,0,0,1,1.94-3.19c6-3,12-6,17.94-9,.3-.16.72,0,.93-.4ZM99.14,10.88l-.22-.24-7.13,3.54c-.24.12-.23.33-.23.54,0,1,0,2,0,3,0,.35.07.52.47.51,1,0,2.07,0,3.11,0a.51.51,0,0,0,.51-.29Q97.38,14.4,99.14,10.88Z"/><path class="cls-1" d="M77.91,34.7A3.35,3.35,0,0,1,77,37.36c-1.48,1.49-3,3-4.46,4.46A3.21,3.21,0,1,1,68,37.28c1.48-1.55,3-3.05,4.54-4.53a3.05,3.05,0,0,1,3.57-.58A2.9,2.9,0,0,1,77.91,34.7Z"/><path class="cls-1" d="M96.11,35.05a2.9,2.9,0,0,1-.88,2.22c-1.52,1.55-3,3.12-4.61,4.61a3.2,3.2,0,0,1-4.53-4.52c1.49-1.58,3-3.11,4.61-4.61a3.2,3.2,0,0,1,5.41,2.3Z"/><path class="cls-1" d="M74.43,13.67a3.17,3.17,0,0,1,3.15,1.75,2.82,2.82,0,0,1-.29,3.31c-1.66,1.81-3.38,3.57-5.21,5.22a3.17,3.17,0,0,1-4.37-4.53c1.59-1.73,3.28-3.36,5-5A2.48,2.48,0,0,1,74.43,13.67Z"/></g></g></svg>