<svg xmlns="http://www.w3.org/2000/svg" viewBox="0 0 29 29"><defs><style>.cls-1{fill:#4f46e5;}</style></defs><g id="Layer_2" data-name="Layer 2"><g id="Layer_1-2" data-name="Layer 1"><path class="cls-1" d="M29,1.35A1.35,1.35,0,0,0,27.65,0H23.27a1.35,1.35,0,0,0-.95,2.31l1,1a.67.67,0,0,1,0,1L8.12,19.44a.34.34,0,0,1-.48,0,.34.34,0,0,1-.09-.19L5.84,7.83a.67.67,0,0,1,.29-.66,10.15,10.15,0,0,1,11.29-.61.67.67,0,0,0,.81-.1L19.68,5a.68.68,0,0,0,0-1A.69.69,0,0,0,19.55,4,13.1,13.1,0,0,0,3.83,5.17c-.46.41-1.07.42-1.72-.24a.69.69,0,0,0-1,0l-.95,1a.66.66,0,0,0,0,1L1.39,8a2.39,2.39,0,0,0,1.37.68.7.7,0,0,1,.57.57l2,13.26a1.36,1.36,0,0,0,1.14,1.14l13.25,2a.66.66,0,0,1,.57.56A2.46,2.46,0,0,0,21,27.61l1.19,1.19a.67.67,0,0,0,1,0l.95-.95a.67.67,0,0,0,0-1c-.65-.65-.64-1.26-.23-1.72C28.4,19.9,28,12.8,23.71,7.58a.68.68,0,0,1,.05-.91l1-1a.69.69,0,0,1,1,0l1,1a1.36,1.36,0,0,0,1.91,0,1.33,1.33,0,0,0,.4-1ZM21.83,22.86a.69.69,0,0,1-.67.3L9.74,21.45a.34.34,0,0,1-.29-.38.35.35,0,0,1,.1-.19L20.41,10a.69.69,0,0,1,1,0l.06.06A10.26,10.26,0,0,1,21.83,22.86Z"/></g></g></svg>