<svg xmlns="http://www.w3.org/2000/svg" viewBox="0 0 383.02 383.31"><defs><style>.cls-1{fill:#020202;}</style></defs><g id="Layer_2" data-name="Layer 2"><g id="Layer_1-2" data-name="Layer 1"><path class="cls-1" d="M174.92,0h31.44c.29,1,1.17.66,1.84.74,5.06.59,10.16.93,15.18,1.8,32.95,5.69,62.67,18.78,88.53,40,38,31.25,61.17,71.23,69,120,.75,4.7.53,9.55,2.12,14.11v30.7c-1,.33-.67,1.18-.76,1.87-.81,6-1.29,12.15-2.47,18.11-9.45,47.42-33,86.42-71.26,115.95-42.47,32.76-90.81,45.1-143.85,38.17-31.35-4.09-60.24-15.38-85.47-34.53C18.89,301.14-7,240.14,1.6,165c3.64-31.8,15.81-60.75,35-86.44C68.09,36.37,109.86,10.74,162,2.16,166.29,1.45,170.79,1.77,174.92,0Zm13.69,95.65a59.12,59.12,0,0,0-25.44,4.68c-10.92,4.73-19.61,11.81-23,23.79-2.25,7.87.79,14.87,7.49,17.9,7.18,3.25,12.31,1.53,17.45-5.75a66,66,0,0,1,4.11-5.31,19.34,19.34,0,0,1,9.81-5.81,35.92,35.92,0,0,1,14.84-.65c7,1,13.46,3.6,16.1,10.93s.41,14-4.4,19.78a65.61,65.61,0,0,1-12.86,11.36c-16.18,11.5-22.23,27.41-20.77,46.72.58,7.63,3.79,11,11.41,11.45a39.47,39.47,0,0,0,7.45-.21c6.34-.83,9.44-4.4,9.6-10.74,0-1.87,0-3.74,0-5.61a26.81,26.81,0,0,1,8.67-20.31c2.55-2.38,5.28-4.56,8-6.79,8-6.67,15.12-14.08,20.1-23.36,11.72-21.83,4.2-45.13-18.09-55.85C209.55,97.32,199.48,95.47,188.61,95.65ZM205,261.85a19.15,19.15,0,1,0-38.3,0c0,10.6,8.79,19.49,19.17,19.38A19.48,19.48,0,0,0,205,261.85Z"/></g></g></svg>