<svg xmlns="http://www.w3.org/2000/svg" viewBox="0 0 383.37 318.34"><defs><style>.cls-1{fill:#010101;}</style></defs><g id="Capa_2" data-name="Capa 2"><g id="Capa_1-2" data-name="Capa 1"><path class="cls-1" d="M0,228.14c2.1-3.43,5.21-4.44,9.13-4.36,9.1.17,18.21.29,27.31,0,40.37-1.27,69.48-20.19,87.07-56.48,8.19-16.88,14-34.89,23.26-51.26C172.2,71,210.64,44,261.59,34.88a145,145,0,0,1,26-2.31c2.56,0,3.24-.83,2.78-3.26-.61-3.3-1.13-6.64-1.44-10-.73-7.6,2.29-13.47,8.95-17.09s13-2.8,18.89,1.73q22.54,17.31,45,34.71c4.84,3.73,9.73,7.39,14.48,11.22,9.25,7.47,9.56,20.07.25,27.4-19.88,15.65-40,31-60.06,46.42-5.76,4.41-12.22,4.93-18.6,1.46s-9.51-9-8.93-16.36c.29-3.72.9-7.42,1.49-11.11.33-2,.24-3.1-2.44-3.06-40.84.61-70.68,19-88.86,55.54-7.79,15.69-13.28,32.49-21.5,48C151.28,247.83,110,276.64,54.39,284.84c-15.72,2.32-31.63,1.2-47.46,1.36-3.23,0-5.15-1.89-6.93-4.17Z"/><path class="cls-1" d="M0,36.51c2.1-3.17,5-4.21,8.82-4.13,16.44.35,32.93-.73,49.3,1.84q52.39,8.22,90.1,45.5c3,3,3.28,5.9.64,9.36-9.88,13-17.18,27.35-23.55,42.27-2.83,6.62-8.1,7.21-12.51,1.58C93,107.66,67.07,94.85,34.94,94.72c-8.61,0-17.22-.14-25.82,0-3.94.09-7-.94-9.12-4.37Z"/><path class="cls-1" d="M306.78,191.28c3.5-.1,7,1.42,10.12,3.84,19.64,15.14,39.32,30.22,58.88,45.47,10.19,7.94,10.07,20.67-.15,28.6-19.28,15-38.74,29.75-57.93,44.86-11.69,9.2-25.91,2.4-28.48-9-1.08-4.75.21-9.42.92-14.08s.78-4.69-3.79-4.81C243.29,285.05,206,270,175,239.91c-4.37-4.24-4.66-6.54-1.12-11.3a180.31,180.31,0,0,0,22.4-40.34c3.29-8.13,8.26-8.72,13.66-1.93q29.67,37.38,77.44,37.57c3.1,0,3.48-1,3-3.59a85.91,85.91,0,0,1-1.48-11.47C288.59,199,296.39,191.21,306.78,191.28Z"/></g></g></svg>