<svg xmlns="http://www.w3.org/2000/svg" viewBox="0 0 109.76 75.49"><defs><style>.cls-1{fill:#4f46e5;}</style></defs><g id="Layer_2" data-name="Layer 2"><g id="Layer_1-2" data-name="Layer 1"><path class="cls-1" d="M109.76,18c-3.36,6.25-11.24,13-21.29,12a19.55,19.55,0,0,1-3.88-.74.72.72,0,0,0-1,.4c-2.71,4.77-5.33,9.59-7.9,14.44-.32.59-.1.78.37,1a89.33,89.33,0,0,1,8,5.22,19.07,19.07,0,0,1,6.21,7.08c2.05,3.91,3.91,7.92,5.7,12A4.08,4.08,0,0,1,93.82,75,4.18,4.18,0,0,1,88,73.27c-1.19-2.27-2.19-4.64-3.31-7q-1.23-2.55-2.54-5a9.57,9.57,0,0,0-3-3.45,60.3,60.3,0,0,0-12.35-7.2,1.17,1.17,0,0,0-1.59.42,22.27,22.27,0,0,1-25.63,5.88,17.21,17.21,0,0,1-2.38-1.22,4.25,4.25,0,0,1-1.68-5.92,4.6,4.6,0,0,1,6-2.15,19.88,19.88,0,0,0,4.15,1.66,11.61,11.61,0,0,0,9-2.1,17.88,17.88,0,0,0,5.52-5.89c.37-.65.79-1.28,1.12-1.94,2.84-5.59,5.69-11.18,8.77-16.63-2.79-1.4-7.28-1-10.14.88A20.2,20.2,0,0,0,55.41,28a4.68,4.68,0,0,1-6.55,1.16c-2-1.29-2.59-3.38-1.31-5.26,3.67-5.37,8.43-9.29,15-10.55,5.23-1,10.13.15,14.78,2.56,2.25,1.17,4.43,2.45,6.68,3.61,6.32,3.23,12.26,1.9,16.64-3.7a6.14,6.14,0,0,1,3.06-2.56c2.53-.7,4.84.52,6.06,3.21Z"/><path class="cls-1" d="M78,8.64a8.79,8.79,0,0,1,17.58.2A8.79,8.79,0,1,1,78,8.64Z"/><path class="cls-1" d="M20.49,23.24h-16a11.45,11.45,0,0,1-1.17,0,1.56,1.56,0,0,1-.12-3.08A6.41,6.41,0,0,1,4.4,20H37c1.33,0,2.07.65,2,1.67s-.73,1.56-2,1.56C31.48,23.25,26,23.24,20.49,23.24Z"/><path class="cls-1" d="M31.18,41.43H15.11a7.58,7.58,0,0,1-1.17-.06A1.45,1.45,0,0,1,12.67,40a1.5,1.5,0,0,1,1-1.62A3.36,3.36,0,0,1,15,38.2H47.36a5.16,5.16,0,0,1,1,.06,1.58,1.58,0,0,1-.22,3.15c-2,0-4,0-6,0Z"/><path class="cls-1" d="M50.71,7.5H34.65a5.08,5.08,0,0,1-1.17-.07,1.47,1.47,0,0,1-1.22-1.54,1.49,1.49,0,0,1,1.33-1.56,5.45,5.45,0,0,1,1.07,0H66.89a6.13,6.13,0,0,1,1,0,1.51,1.51,0,0,1,1.42,1.48A1.51,1.51,0,0,1,68,7.45a5.41,5.41,0,0,1-1.07,0Z"/><path class="cls-1" d="M16.71,61.77H2.36a5.48,5.48,0,0,1-1.07,0,1.58,1.58,0,0,1-.22-3,3.79,3.79,0,0,1,1.38-.13H31.14c1.71,0,2.51.54,2.48,1.67s-.8,1.55-2.46,1.55Z"/></g></g></svg>