<svg xmlns="http://www.w3.org/2000/svg" viewBox="0 0 408.76 408.74"><defs><style>.cls-1{fill:#4f46e5;}</style></defs><g id="Layer_2" data-name="Layer 2"><g id="Layer_1-2" data-name="Layer 1"><path class="cls-1" d="M0,215.52V200.35c.87-.21.74-.94.82-1.57.79-6.33,1.41-12.68,2.42-19,4.54-28.23,12.5-55.35,27-80.25C42.76,78,59.31,60.39,81.63,48.64c19.35-10.19,40.1-14.37,61.79-14.52,26.52-.18,51.31,5.83,73.7,20.51a146.59,146.59,0,0,1,28.77,25.11c1.85,2.06,2.83,1.86,4.48-.15,5.25-6.37,5.53-13.26,2.46-20.54-2.56-6.08-6.62-11.19-11-16-9.52-10.52-20.65-19.12-32.52-26.82-4.16-2.69-5.67-6.35-4.53-10.08C206,2.07,209.38-.25,214.37,0c6,.33,11.95.78,17.87,1.56,29.53,3.9,57.58,12.26,82.93,28.35,23.23,14.75,40.46,34.64,50.38,60.47,8,20.93,10.49,42.68,9.08,65-1.39,21.9-7.49,42.22-19.3,60.78a147.3,147.3,0,0,1-25.94,30.13c-1.86,1.69-1.83,2.53.09,4.15,5.82,4.93,12.17,5.31,19,2.84s12.3-6.81,17.5-11.56c10.38-9.48,18.88-20.51,26.42-32.33,2.78-4.37,6.51-5.88,10.4-4.58,4,1.36,6,4.56,5.93,9.73a175.66,175.66,0,0,1-1.48,17.88c-3.17,25.8-10.12,50.47-22.63,73.34C371.78,329.29,354,348,329.74,360.16c-20.63,10.36-42.62,14.44-65.5,14.36-23.37-.08-45.58-4.85-66.06-16.59a144.43,144.43,0,0,1-35.26-29c-1.83-2-2.84-1.93-4.49.12-3.93,4.89-5.36,10.26-3.85,16.38a36.92,36.92,0,0,0,6.29,12.77c10,13.76,23.14,24.09,37.23,33.32,8.43,5.52,8.42,12.33-.09,17.23H184.44c-.3-1.09-1.24-.77-2-.85-23.09-2.55-45.44-7.95-66.75-17.34C92.56,380.33,72.45,366,57.87,345.08c-23.76-34.12-28.12-72.19-20.59-112,5.22-27.57,20.14-49.93,40.54-68.82,4.4-4.08,4.14-5-1.67-7.33a12,12,0,0,0-6.22-.76A24.68,24.68,0,0,0,59,160.76c-7.46,5.25-13.6,11.88-19.27,19a222.87,222.87,0,0,0-22.86,35.41c-2.61,4.94-5.83,6.71-10.11,6C3.42,220.56,1.9,217.83,0,215.52Zm204.31-45.24c-18.58.15-34,15.57-34,34.05s16.07,34.55,34.35,34.07c18.82-.49,34.09-16,33.77-34.25C238.14,185.45,222.68,170.12,204.31,170.28Zm5.54-68a50.11,50.11,0,0,0-6.37,0,8.51,8.51,0,0,0-7.55,8.39,8.37,8.37,0,0,0,7.66,8.26c2.24.3,4.5.39,6.75.59,31.62,2.8,54.79,18.46,69.86,46.21,6.46,11.91,8.88,24.89,9.48,38.33.25,5.57,4.08,9,8.87,8.66s8.06-4.08,8-9.6a95.51,95.51,0,0,0-2-19C294.86,138.1,256.69,105.16,209.85,102.27ZM102.28,208.91a113.11,113.11,0,0,0,2.12,16.2,100.52,100.52,0,0,0,34.32,57.37c18.54,15.63,40.16,23.49,64.4,24,5.57.12,9.3-3,9.67-7.91s-3-8.37-8.55-9c-4.49-.52-9-.6-13.49-1.24-32-4.6-60.55-30.4-68.57-61.84-1.93-7.54-2.39-15.2-3.16-22.86a8.26,8.26,0,0,0-8.17-7.74,8.56,8.56,0,0,0-8.54,7.85A47.07,47.07,0,0,0,102.28,208.91Zm34.18-7.56c-.34,3.52-.22,7.47,3.77,10a8.07,8.07,0,0,0,8.31.46c3.62-1.79,4.65-5.11,4.83-8.93.78-16.69,7.83-30.12,21.3-40a50,50,0,0,1,28.2-9.61c6.4-.27,10.23-3.75,9.95-8.91-.29-5.31-4.15-8.18-10.7-8a75,75,0,0,0-8.71.81C162.65,141.51,137.53,169.53,136.46,201.35Zm71.25,71c20.08-1.31,36.74-9.53,49.54-25.16a65.53,65.53,0,0,0,15.16-41.82c.07-5.53-3.18-9.22-8.12-9.44-5.17-.22-8.47,3.6-8.85,10-1.1,18.77-9.65,33.09-25.81,42.72-7.45,4.43-15.63,6.4-24.28,6.77-7.06.3-11.27,6-8.72,11.76C198.74,272,202.93,272.85,207.71,272.32Z"/></g></g></svg>