<svg xmlns="http://www.w3.org/2000/svg" viewBox="0 0 374.37 374.31"><defs><style>.cls-1{fill:none;}.cls-2{fill:#030303;}.cls-3{fill:#0b0a09;}</style></defs><g id="Layer_2" data-name="Layer 2"><g id="Layer_1-2" data-name="Layer 1"><path class="cls-1" d="M242.83,77.64C213.08,81.3,189,105,185.51,134.79c-.35,3,.21,6.15-1.81,9q-19.15,26.93-38.08,54a4.22,4.22,0,0,1-4.24,2.11,46.21,46.21,0,0,0-24.85,5.35,6,6,0,0,1-5.84.2c-16.33-6.63-32.69-13.14-49-19.69-4-1.58-4-1.58-4,2.87v26.57c0,8.73.2,17.47-.1,26.19-.11,3.37,1.11,4.67,4.08,5.77,9,3.32,17.78,7,26.64,10.51,1.48.59,2.63,1.18,3.21,3.13,7.61,25.29,29.79,39.34,55.89,35.61,19.86-2.85,37.45-20.7,39.84-40.6a6,6,0,0,1,2.88-4.45q29.57-21.28,59.06-42.65a6,6,0,0,1,3.72-1.4,58.39,58.39,0,0,0,12.21-1.47c34.48-6.86,57.45-42.08,50.42-76.39C308.85,96.78,277.11,73.41,242.83,77.64ZM155.35,280.92c-17.44,8.86-38.76,2.26-48.45-15.78,6.53,2.58,12.23,4.93,18,7.1C140,277.91,156,271,162,256.42a28,28,0,0,0-14.58-36.28c-5.08-2.27-10.29-4.23-15.64-6.41,14.17-4.38,32.32,3.66,39.76,19A36.15,36.15,0,0,1,155.35,280.92Zm95.56-94.82c-24.8-.22-44.3-19.81-44.21-44.42.09-23.84,20.36-43.47,44.62-43.22a43.82,43.82,0,1,1-.41,87.64Z"/><path class="cls-1" d="M251.47,116a26.2,26.2,0,1,0,25.77,26.38A26.2,26.2,0,0,0,251.47,116Z"/><path class="cls-2" d="M187.17,0C84.24,0,.53,83.61,0,186-.54,289.84,84.15,374.47,187.13,374.31c103.47-.16,187.23-83.64,187.24-187A186.93,186.93,0,0,0,187.17,0Zm78,205.85a58.39,58.39,0,0,1-12.21,1.47,6,6,0,0,0-3.72,1.4q-29.5,21.36-59.06,42.65a6,6,0,0,0-2.88,4.45c-2.39,19.9-20,37.75-39.84,40.6-26.1,3.73-48.28-10.32-55.89-35.61-.58-1.95-1.73-2.54-3.21-3.13-8.86-3.54-17.69-7.19-26.64-10.51-3-1.1-4.19-2.4-4.08-5.77.3-8.72.1-17.46.1-26.19V188.64c0-4.45,0-4.45,4-2.87,16.36,6.55,32.72,13.06,49.05,19.69a6,6,0,0,0,5.84-.2,46.21,46.21,0,0,1,24.85-5.35,4.22,4.22,0,0,0,4.24-2.11q18.93-27.11,38.08-54c2-2.82,1.46-6,1.81-9C189,105,213.08,81.3,242.83,77.64c34.28-4.23,66,19.14,72.71,51.82C322.57,163.77,299.6,199,265.12,205.85Z"/><path class="cls-3" d="M251.32,98.46c-24.26-.25-44.53,19.38-44.62,43.22-.09,24.61,19.41,44.2,44.21,44.42a43.82,43.82,0,1,0,.41-87.64Zm-.62,70a26.2,26.2,0,1,1,26.54-26A26.17,26.17,0,0,1,250.7,168.43Z"/><path class="cls-3" d="M131.77,213.73c5.35,2.18,10.56,4.14,15.64,6.41A28,28,0,0,1,162,256.42c-6,14.61-22,21.49-37.1,15.82-5.76-2.17-11.46-4.52-18-7.1,9.69,18,31,24.64,48.45,15.78a36.15,36.15,0,0,0,16.18-48.16C164.09,217.39,145.94,209.35,131.77,213.73Z"/></g></g></svg>