<svg xmlns="http://www.w3.org/2000/svg" viewBox="0 0 87.6 87.59"><defs><style>.cls-1{fill:#fff;}</style></defs><g id="Layer_2" data-name="Layer 2"><g id="Layer_1-2" data-name="Layer 1"><path class="cls-1" d="M43.64,0A43.8,43.8,0,1,1,0,44.21,43.64,43.64,0,0,1,43.64,0ZM9.35,38.65C5.08,56.3,13,70.91,27.94,77.84a37.59,37.59,0,0,0,47.93-53.6C67.16,10.12,50,3.09,34.38,7.55c-2.9.82-5.46,2.86-8.18,4.34C29,14.34,31.76,17,34.79,19.15c1,.7,2.83.6,4.14.29,9.5-2.24,16.26,3.72,23.49,8,1.23.72,2.34,3.81,1.79,5A123.17,123.17,0,0,1,55.87,47.2c-.7,1.07-3,1.11-4.52,1.62-.53-1.81-1.75-3.74-1.45-5.39.51-2.82,2-5.46,3-8L34.77,34c4.25,2.13,6.28,3.9,8.47,4.11,6.6.66,4.46,3.74,2.19,6.85C43.4,47.7,40.84,50.13,39,53c-2.34,3.72-4.18,7.75-6.24,11.66-3.78-3.11-7.77-6-11.26-9.4-1.7-1.66-2.26-4.43-3.74-6.39C15.13,45.36,12.18,42.05,9.35,38.65Z"/><path class="cls-1" d="M61.3,65c-1.73.36-4.14,1.66-5.19,1a115.85,115.85,0,0,1-12.28-10c-.72-.66-.86-2.87-.3-3.78S46.4,50.39,47,50.81c4.77,3.56,9.35,7.39,13.9,11.23C61.26,62.37,61.09,63.36,61.3,65Z"/><path class="cls-1" d="M41.75,60.16c1,.36,1.77.44,2.19.89,2.5,2.68,5,5.41,7.21,8.29A9.59,9.59,0,0,1,48.77,72,87,87,0,0,1,39,65.07c-.55-.46-.1-2.59.42-3.69C39.73,60.69,41.06,60.49,41.75,60.16Z"/><path class="cls-1" d="M72,56.38c-3.06,1.92-5,3.77-5.59,3.41-3.46-2.18-6.59-4.87-9.84-7.39,1.11-1.3,2.91-3.89,3.2-3.72C63.51,50.73,67.06,53.19,72,56.38Z"/><path class="cls-1" d="M66.5,37.59l7.39,9.65c-1.28.95-3.45,2.91-3.71,2.68a57.1,57.1,0,0,1-7.4-7.75C62.57,41.91,64.62,39.87,66.5,37.59Z"/></g></g></svg>