<svg xmlns="http://www.w3.org/2000/svg" viewBox="0 0 408.9 409.6"><g id="Layer_2" data-name="Layer 2"><g id="Layer_1-2" data-name="Layer 1"><path d="M188.53,409.6c-4.73-1.71-9.77-1.47-14.65-2.27-52.93-8.6-96.06-34.1-129.56-75.83-23.19-28.89-37.16-62-42.38-98.7C-3.64,193.51,3,156,19.43,120.13a6.49,6.49,0,0,1,1-1.13c11.77,11.86,23.47,23.67,35.23,35.42,1.36,1.35.86,2.5.41,3.94C51,174.88,48.25,191.82,49,209.09,50.89,253,67.61,290.21,100.1,320c24.1,22.09,52.42,35.45,84.87,39.2,53.11,6.15,98.06-10.77,134.47-49.85a146.66,146.66,0,0,0,39.17-85c6.13-53.22-10.77-98.25-49.78-134.73C285,67.29,256.39,54.6,224,50.27a149.36,149.36,0,0,0-64.14,5.5c-3.11.94-5.13.63-7.56-1.89-10.91-11.3-22.12-22.32-33.54-33.76a165.54,165.54,0,0,1,21.33-8.85A190.56,190.56,0,0,1,188.15.79c.56,0,1-.17,1.18-.79h29.54c.26.86,1,.71,1.61.74a162.47,162.47,0,0,1,33.31,5.33q62.75,16,105.17,65.12a202,202,0,0,1,47.69,102.93c.8,5.16.64,10.45,2.25,15.48v31.2c-.83.25-.75,1-.79,1.6a177.59,177.59,0,0,1-5.34,32.16q-16.14,62.63-64.92,105a201.23,201.23,0,0,1-102.73,47.78c-5.41.85-11,.67-16.25,2.26Z" style="fill:#050404"/><path d="M63.18,0a23.79,23.79,0,0,1,8.91,6.21q33.75,34.34,67.63,68.52a15.73,15.73,0,0,1,5,12.07c-.21,12.39,0,24.79-.12,37.19a7.87,7.87,0,0,0,2.51,6.25Q179.5,162.52,211.74,195c4,4,6.08,8.4,4,14a11.78,11.78,0,0,1-18,5.64,28.61,28.61,0,0,1-3.88-3.43q-31.63-31.63-63.18-63.36a9.5,9.5,0,0,0-7.62-3.08c-12.36.17-24.74,0-37.11.12a13.66,13.66,0,0,1-10.36-4.16Q40,105.05,4.44,69.44c-4-4-5.7-8.76-3.35-14.14S7.84,47.87,13.62,48c10.51.15,21-.07,31.53.11,2.86,0,3.82-.5,3.74-3.62-.23-9.86-.09-19.72-.08-29.59,0-8.67,1.95-11.7,9.58-14.86Z" style="fill:#050404"/><path d="M312.29,197.68c0,58.57-36.17,103.05-87,113.12A107.28,107.28,0,0,1,107.9,252.52q-19.23-39.22-5.61-80.91c.67-2,1.54-2.63,3.78-2.93,8.32-1.12,14.57,1.48,20,8.09,5.22,6.35,11.48,11.85,17.4,17.6a5.57,5.57,0,0,1,1.78,5.27c-3.84,30.12,19.88,60.52,50.16,64.36,32.94,4.17,61.14-15.86,67.82-48.18,6.8-32.89-17.6-66.55-50.93-70.33-4.52-.51-9-1.05-13.48,0-2.15.5-3.44-.58-4.81-2-7.58-7.67-15.17-15.34-22.88-22.87-1.85-1.81-3-3.61-2.57-6.22a6.86,6.86,0,0,0,0-1.2c0-10.71.06-10.49,10.55-13.19,43.51-11.17,89.1,7,114.24,43.67C306,162.08,312.17,182.51,312.29,197.68Z" style="fill:#050404"/></g></g></svg>