<svg xmlns="http://www.w3.org/2000/svg" viewBox="0 0 149.5 149.5"><defs><style>.cls-1{fill:#231f20;}</style></defs><g id="Layer_2" data-name="Layer 2"><g id="Layer_1-2" data-name="Layer 1"><path class="cls-1" d="M74.75,0A74.75,74.75,0,1,0,149.5,74.75,74.83,74.83,0,0,0,74.75,0Zm0,129.5A54.75,54.75,0,1,1,129.5,74.75,54.81,54.81,0,0,1,74.75,129.5Z"/><path class="cls-1" d="M95.32,87.43a43.38,43.38,0,0,0-11.48-5.71c-1.14-.39-2.14-.9-2.39-2.17a4.91,4.91,0,0,1,.93-4.5,24.17,24.17,0,0,0,5.89-13.44,16.56,16.56,0,0,0-1.29-9,12.46,12.46,0,0,0-9-7.17A11.92,11.92,0,0,1,76.25,45H73.11a5.74,5.74,0,0,1-1.49.32c-5.56,1.27-8.87,4.78-10.09,10.28a19.88,19.88,0,0,0,.49,10,23.07,23.07,0,0,0,5.18,9.56c1.56,1.67,1.53,5.36-1.56,6.44a46.15,46.15,0,0,0-10.53,5.22,18.46,18.46,0,0,0-4.47,4.08,7.62,7.62,0,0,0-1.24,5.22,5.22,5.22,0,0,0,2.44,4.3,17.79,17.79,0,0,0,6.6,2.64,62.1,62.1,0,0,0,10.79,1.29c.17,0,.39-.1.52.12h9.86a12.73,12.73,0,0,1,2.61-.23,46.66,46.66,0,0,0,11.38-1.86A12.72,12.72,0,0,0,98.19,100a5.22,5.22,0,0,0,1.9-3.87,7.7,7.7,0,0,0-1.69-5.89A19.54,19.54,0,0,0,95.32,87.43Z"/></g></g></svg>