<svg xmlns="http://www.w3.org/2000/svg" viewBox="0 0 115.93 116.25"><defs><style>.cls-1{fill:#231f20;}</style></defs><g id="Layer_2" data-name="Layer 2"><g id="Layer_1-2" data-name="Layer 1"><path class="cls-1" d="M115.64,86a26.18,26.18,0,0,0-22-22A26.27,26.27,0,0,0,65.37,79.69a25.64,25.64,0,0,0-2,7.84c0,.08,0,.18-.11.2v4.52a7.54,7.54,0,0,1,.3,1.77,25.77,25.77,0,0,0,11,17.55,25.52,25.52,0,0,0,12.6,4.57c.08,0,.17,0,.2.11h4.32a10.46,10.46,0,0,1,1.93-.29A26.19,26.19,0,0,0,115.7,93.62a6.25,6.25,0,0,1,.23-1.48v-4.2A10.57,10.57,0,0,1,115.64,86Z"/><path class="cls-1" d="M20,58.23h9.67A12.8,12.8,0,0,1,32.18,58a45.9,45.9,0,0,0,11.16-1.82,12.68,12.68,0,0,0,4.49-2.33,5.11,5.11,0,0,0,1.87-3.79A7.61,7.61,0,0,0,48,44.3a19.19,19.19,0,0,0-3-2.75A42,42,0,0,0,33.76,36c-1.11-.39-2.09-.89-2.34-2.13a4.84,4.84,0,0,1,.92-4.41,23.73,23.73,0,0,0,5.77-13.17,16.37,16.37,0,0,0-1.26-8.87,12.22,12.22,0,0,0-8.78-7A13,13,0,0,1,26.33,0H23.26a5.28,5.28,0,0,1-1.47.31C16.34,1.56,13.1,5,11.91,10.39a19.43,19.43,0,0,0,.47,9.75,22.6,22.6,0,0,0,5.09,9.37,3.93,3.93,0,0,1-1.54,6.31A45.35,45.35,0,0,0,5.61,40.94a18.07,18.07,0,0,0-4.38,4A7.57,7.57,0,0,0,0,50.05a5.16,5.16,0,0,0,2.4,4.22,17.79,17.79,0,0,0,6.47,2.59,61.51,61.51,0,0,0,10.57,1.26C19.62,58.13,19.83,58,20,58.23Z"/><rect class="cls-1" x="-3.57" y="57.92" width="125" height="10.55" transform="translate(-27.42 60.18) rotate(-45)"/></g></g></svg>