<svg xmlns="http://www.w3.org/2000/svg" viewBox="0 0 105.02 123"><defs><style>.cls-1{fill:#231f20;}</style></defs><g id="Layer_2" data-name="Layer 2"><g id="Layer_1-2" data-name="Layer 1"><path class="cls-1" d="M101.46,93.57a39.36,39.36,0,0,0-6.36-5.81A89.91,89.91,0,0,0,71.32,75.93c-2.35-.81-4.42-1.87-4.95-4.49-.66-3.34-.48-6.53,1.94-9.31A50.11,50.11,0,0,0,80.5,34.3a34.5,34.5,0,0,0-2.67-18.74c-3.7-8-10-12.84-18.53-14.85A24.28,24.28,0,0,1,55.61,0H49.12A11.58,11.58,0,0,1,46,.65C34.52,3.3,27.67,10.56,25.15,21.94a41.18,41.18,0,0,0,1,20.61A47.71,47.71,0,0,0,36.89,62.33c3.23,3.45,3.16,11.09-3.25,13.34a95.12,95.12,0,0,0-21.78,10.8,38.38,38.38,0,0,0-9.27,8.44C.1,98.17-.09,101.87,0,105.72s2,6.72,5.07,8.9c4.1,2.93,8.82,4.36,13.66,5.47a129,129,0,0,0,22.33,2.67c.36,0,.81-.22,1.08.24H62.58a27.84,27.84,0,0,1,5.39-.47c8-.5,15.9-1.41,23.57-3.85a26.78,26.78,0,0,0,9.49-4.91,10.8,10.8,0,0,0,3.94-8C105.21,101.26,104.59,97.09,101.46,93.57Z"/></g></g></svg>