<svg xmlns="http://www.w3.org/2000/svg" viewBox="0 0 383.28 288.86"><defs><style>.cls-1{fill:#4f46e5;}</style></defs><g id="Layer_2" data-name="Layer 2"><g id="Layer_1-2" data-name="Layer 1"><path class="cls-1" d="M383.28,155.74c-1.71,4.12-1.84,8.59-2.84,12.87-10.18,43.4-48.46,75.81-93,78.59-8.52.53-12.26-4.34-9.27-12.38.8-2.16-.44-2.16-1.65-2.06-3.6.29-7.18.83-10.77,1.17a75.6,75.6,0,0,1-24.13-1.8c-6.74-1.55-8.91-8.66-4.31-13.92,2.63-3,5.28-6,8.12-8.79,2.21-2.18,2.59-3.08-.89-4.48C210.91,191.4,177.33,177.66,143.72,164c-6.42-2.62-7.38-4-7.38-10.84,0-6.36,0-12.72,0-19.08,0-4.09,1.75-6.75,5.6-8.31,16.37-6.6,32.68-13.31,49-20,4-1.63,7.24-.68,8.61,2.4,1.48,3.34-.07,6.24-4.43,8-14.72,6-29.44,12.05-44.21,17.93-2.55,1-3.7,2.25-3.42,5.13.46,4.67-1.74,10.43.81,13.78,2.41,3.18,8.05,3.93,12.31,5.66l93.55,38.11c8,3.26,9.39,8.88,3.77,15.35-2.77,3.2-5.62,6.32-8.72,9.8,7.68,1.55,15,1.17,22.37,0a108.69,108.69,0,0,0,11.64-2.63c3.86-1,7.17-.5,9.74,2.71s2.38,6.15-.12,10.37c-.44.74-.81,1.53-1.22,2.3-.28.27-.39.57,0,.81.07,0,.31-.22.47-.34a81.59,81.59,0,0,0,45.08-18.86c29.27-24.34,40.8-55.77,32.2-92.73C360.91,87.16,336.91,64.44,300.57,55a26.81,26.81,0,0,0-8.45-1.23c-.17-.11-.41-.37-.48-.33-.39.24-.28.54,0,.81.35.65.67,1.33,1.05,2,2.68,4.46,2.8,7.57.3,10.7-2.82,3.52-6.41,3.69-10.46,2.5a76.44,76.44,0,0,0-31.78-2.76c-.34,0-.68.13-1.53.3,3.2,3.63,6.24,7,9.19,10.44,4.91,5.72,3.49,11.69-3.49,14.55q-16.36,6.74-32.79,13.33c-4,1.61-7.27.63-8.56-2.49-1.4-3.37.19-6.18,4.54-8,9.77-4,19.54-8,29.91-12.24-3.68-4.06-7.3-7.9-10.76-11.88-4.55-5.24-2.25-12.25,4.5-13.84a69,69,0,0,1,7-1.31,83.33,83.33,0,0,1,25.32.48,15.06,15.06,0,0,0,2.6.24c1.45,0,2.25-.19,1.5-2.16-2.95-7.7.86-12.76,9.05-12.3,47.18,2.62,87.42,39.18,94.72,86,.29,1.84-.07,3.92,1.36,5.51Z"/><path class="cls-1" d="M70.07,126.74c-9.48,0-19,.06-28.43,0-2.06,0-2.7.49-2.78,2.66-.25,6-3.71,9.23-9.82,9.29q-9.72.1-19.45,0c-5.94-.08-9.52-3.65-9.54-9.6q-.09-24.5,0-49c0-6.12,3.65-9.65,9.83-9.7,6.49,0,13-.07,19.45,0,5.77.07,9.37,3.41,9.51,9.23,0,2.51,1,2.73,3.06,2.74,12.26.07,12.17.27,12.06-11.71-.12-13.22-.06-26.43,0-39.65C54,11.51,69.55-2.13,88.91.27c7.33.92,12.25,6.12,12.37,13.55.16,9.6.11,19.2,0,28.8,0,2.27.35,3.15,2.95,3.19,13,.2,22.13,9.27,22.11,22.22,0,11.08.9,22.21-.53,33.25a29.46,29.46,0,0,1-28.08,25.34c-9.22.29-18.45,0-27.67,0Zm20-78.08c0-11.1-.06-22.2,0-33.3,0-2.91-1.13-3.91-4-4-13-.34-21,7.3-21,20.24,0,15.22,0,30.43,0,45.65,0,9.35-6.56,15.94-15.94,16.24-2.62.09-5.24.15-7.85,0-2-.13-2.51.59-2.47,2.51.12,5.61.13,11.23,0,16.84,0,2.06.47,2.74,2.64,2.72,18.21-.08,36.42,0,54.63-.09,10.36-.07,18.38-7.5,18.85-17.91.46-10.08.29-20.21.07-30.3-.14-6-4.44-9.89-10.25-10.32-2.72-.21-3.67.44-3.58,3.38.23,7.48.14,15,0,22.45,0,3.49-2.09,5.54-5.17,5.71-3.25.17-5.53-1.86-5.95-5.38a27.13,27.13,0,0,1-.06-3ZM11.26,104.47c0,6.85,0,13.7,0,20.55,0,1.58.1,2.53,2.13,2.45,4.1-.15,8.22-.12,12.33,0,1.73.05,2-.66,2-2.19,0-13.82-.06-27.65,0-41.47,0-1.88-.63-2.3-2.35-2.25-3.74.11-7.49.22-11.21,0-2.62-.18-3,.87-3,3.15C11.35,91.27,11.26,97.87,11.26,104.47Z"/><path class="cls-1" d="M90.09,240.1V209c0-.87,0-1.75,0-2.62.3-3.81,2.49-6,5.88-5.86,3.21.11,5.26,2.25,5.31,6,.09,7.48.12,15,0,22.45,0,2.36.46,3.26,3,3.15,6.19-.27,10.67-4.24,10.8-10.57.2-9.85.3-19.72,0-29.56-.36-10.72-8.43-18.29-19.15-18.44-6.36-.1-12.72,0-19.09-.05-2.85,0-5.08-1.16-6-4.06-.82-2.45.1-4.39,1.9-6,1.3-1.17,3-1.15,4.59-1.14,6.24,0,12.48-.08,18.71,0,16.94.27,29.81,12.71,30.34,29.66.32,10,.27,20,0,29.93-.29,12.28-9.5,21.2-21.9,21.33-2.74,0-3.21.88-3.17,3.37.15,9.11.1,18.22,0,27.32-.06,9.41-5.48,14.81-14.86,14.94-20,.27-32.52-12.14-32.53-32.17V214c0-6.19-1.11-7.27-7.45-7.28-.5,0-1,0-1.5,0-3.64-.38-6.5-.56-6.47,4.85,0,4.1-4.07,7-8.36,7-7.11.12-14.22.14-21.33,0a8.65,8.65,0,0,1-8.74-8.87q-.15-25.26,0-50.52c0-5.25,3.77-8.75,9.13-8.84,6.73-.11,13.47-.1,20.21,0,5.79.07,9.21,3.36,9.44,9.29.08,2.18.73,2.76,2.79,2.65a80.69,80.69,0,0,1,8.23,0c3.38.14,5.48,2.23,5.58,5.3a5.38,5.38,0,0,1-5.18,5.76,74.53,74.53,0,0,1-9,.11c-1.64-.05-2.47.19-2.43,2.18.14,5.86.12,11.73,0,17.59,0,1.83.56,2.36,2.33,2.27,2.74-.13,5.49-.11,8.23,0,9.17.35,15.66,6.94,15.7,16.1.07,15.59,0,31.19,0,46.78,0,12.28,9.78,20.7,22,19.23,2.81-.34,3-2.08,2.95-4.23C90.07,262.31,90.09,251.2,90.09,240.1ZM11.26,184.17c0,7,.05,14,0,20.93,0,1.66.25,2.46,2.19,2.39,4-.15,8-.17,12,0,2.17.09,2.37-.85,2.36-2.63-.06-13.58-.09-27.15,0-40.73,0-2.27-.8-2.66-2.79-2.58-3.61.14-7.23.18-10.83,0-2.24-.11-3,.43-2.93,2.82C11.38,171,11.26,177.57,11.26,184.17Z"/><path class="cls-1" d="M283.11,162.64c-7.11-3.09-13.89-6.15-20.77-9-4.17-1.72-7-4.34-7-9.07s2.73-7.42,6.91-9.15c6.88-2.85,13.67-5.9,20.9-9.05-2.75-3.3-5.35-6.39-7.91-9.51-4.65-5.65-3.61-11.84,2.81-15.22,18.32-9.67,36.41-9,53.08,3.28,17,12.44,23.49,29.95,18.83,50.39s-18.33,33.22-39,37.59c-11.75,2.48-23,.15-33.48-5.77-5.51-3.12-6.72-9.29-2.78-14.3C277.34,169.45,280.17,166.17,283.11,162.64Zm-13.49-18.13c7.35,3.2,13.89,5.91,20.3,8.88,6,2.76,7.52,9.07,3.58,14.3a79.56,79.56,0,0,1-6.73,8c-2.4,2.45-1.3,3.2,1.23,4.13,14.55,5.29,27.87,3,39.34-7.21,11.27-10.08,15.07-23,11.48-37.66-5.45-22.19-29.79-34.23-51-25.76-3,1.2-2.94,2.14-1,4.2s3.72,4.36,5.56,6.57c5.47,6.59,3.94,12.89-4,16.36C282.44,139,276.43,141.56,269.62,144.51Z"/></g></g></svg>