<svg xmlns="http://www.w3.org/2000/svg" viewBox="0 0 233.44 131.33"><defs><style>.cls-1{fill:#4f46e5;}</style></defs><g id="Layer_2" data-name="Layer 2"><g id="Layer_1-2" data-name="Layer 1"><path class="cls-1" d="M0,11.46c1.23-2,1.83-4.22,3.4-6A14.73,14.73,0,0,1,14.74.07c2.5,0,5,0,7.52,0Q119.93.06,217.59,0c8.27,0,13.75,5.31,15.24,10.63a13.73,13.73,0,0,1-2.69,13c-.68.82-1.4,1.6-2.15,2.35q-50,50-99.9,100c-4.64,4.65-9.85,6.66-16.29,4.49a15.54,15.54,0,0,1-6-4.05Q55.38,76,4.93,25.54A25.81,25.81,0,0,1,0,17.84Z"/></g></g></svg>