<svg xmlns="http://www.w3.org/2000/svg" viewBox="0 0 99.58 92.7"><defs><style>.cls-1{fill:#4f46e5;}</style></defs><g id="Layer_2" data-name="Layer 2"><g id="Layer_1-2" data-name="Layer 1"><path class="cls-1" d="M99.58,45.77a15.94,15.94,0,0,0-.53,3.76,48.78,48.78,0,0,1-9.53,23.25A48.69,48.69,0,0,1,61.87,91.19,49.72,49.72,0,0,1,14.75,7.64a5.56,5.56,0,0,1,6.14-1.45,5.41,5.41,0,0,1,3.73,5,5.4,5.4,0,0,1-1.34,4c-1.23,1.46-2.61,2.79-3.78,4.31a38.18,38.18,0,0,0-6.59,33.87A38,38,0,0,0,26.25,73.15,37.64,37.64,0,0,0,46,81.08a37.23,37.23,0,0,0,19.4-3.19A38.3,38.3,0,0,0,88,42.9,37.15,37.15,0,0,0,80.8,20.76l-.42-.56c0,1.5,0,2.73,0,3.95a6.51,6.51,0,0,1-.71,3.38,5.77,5.77,0,0,1-6.19,2.83,5.5,5.5,0,0,1-4.43-5.12C69,19.67,69,14.09,69,8.52c0-1.1,0-2.21.06-3.3A5.57,5.57,0,0,1,74.22.08C77,0,79.79,0,82.58,0H93.37c3.3,0,5.15,1.43,6.08,4.61,0,0,.09.07.13.11V7.07c-.25,0-.25.27-.31.43A5.54,5.54,0,0,1,94,11.39c-1.17.06-2.33,0-3.5,0a10.51,10.51,0,0,0-2.17.08,1.12,1.12,0,0,0,0,.16l.46.63a50,50,0,0,1,10.41,26,10.47,10.47,0,0,0,.32,3.2Z"/></g></g></svg>