<svg xmlns="http://www.w3.org/2000/svg" viewBox="0 0 383.23 362.54"><defs><style>.cls-1{fill:#4f46e5;}</style></defs><g id="Layer_2" data-name="Layer 2"><g id="Layer_1-2" data-name="Layer 1"><path class="cls-1" d="M383.23,78.05c-1.34,1.17-1.14,2.89-1.48,4.37-6.87,30-35,51.89-66,51.36-31.92-.55-59.32-23.28-65-54C243.64,41.9,267.78,7.1,305.77.42c10.14-1.78,15.78,3.18,15.34,13.5-1,23.44,12.85,42.21,34.95,47.29a42.71,42.71,0,0,0,12.25,1c8.72-.54,11.38,1,14.92,8.36Z"/><path class="cls-1" d="M88.16,219.67l28.35,12.92q34.58,15.82,69.12,31.68c4.32,2,8.25,1.7,12.51-.27q46.73-21.51,93.55-42.8c.89-.41,1.81-.77,3.08-1.3.49,4.09-.48,7.82-.77,11.54a237.12,237.12,0,0,0,4.92,68.36c1.33,6.22-.72,10.75-6.4,13.61q-47.29,23.8-94.63,47.54a13.3,13.3,0,0,1-12.82-.11q-46.6-23.54-93.3-46.91c-7-3.53-8.92-7.33-7.27-15.14A238.76,238.76,0,0,0,89,228.55c-.11-1.37-.37-2.72-.5-4.08S88.3,221.75,88.16,219.67Z"/><path class="cls-1" d="M67.78,133.79c-34.9-.16-63-24.8-67.63-58.24-1.16-8.36,4.57-14.3,13-13.5a44.58,44.58,0,0,0,49-44.93c0-1.62-.12-3.24-.17-4.86C61.77,4.49,66.83-.57,74.62.18a60.37,60.37,0,0,1,33.94,14.15c22,18.7,30.31,42.52,22.55,70.35s-27.23,43.73-55.67,48.57A64.05,64.05,0,0,1,67.78,133.79Z"/><path class="cls-1" d="M276.16,147.38C262.45,153.66,248.73,160,235,166.22c-9.27,4.2-18.35,8.83-28.52,10.77-15.38,2.94-30.31,1.63-44.6-4.69-18.36-8.12-36.55-16.6-54.77-24.91.3-1.12,1.14-1.24,1.76-1.59,26.08-14.68,41.73-36.72,46.46-66.31.49-3,1.35-3,3.91-2.46a141.74,141.74,0,0,0,65.19-.14c2.43-.58,3-.23,3.42,2.31,4.73,29.89,20.53,52.08,46.93,66.79a9.89,9.89,0,0,1,1.21.82C276.05,146.87,276.05,147,276.16,147.38Z"/><path class="cls-1" d="M72.75,156.39c12.6,5.75,24.23,11.08,35.87,16.36,16.06,7.3,31.87,15.27,48.28,21.67,25.85,10.09,51.69,8.55,76.92-3q36.1-16.52,72.21-33c1.09-.49,2.32-1.73,3.43-.9s0,2.29-.31,3.39c-2.47,9.63-5.06,19.24-7.52,28.88a5,5,0,0,1-3.19,3.67Q246.71,217,195,240.73a7,7,0,0,1-6.59.11Q136.64,217,84.73,193.37c-1.11-.51-2.42-.74-2.8-2.18C79,179.92,76,168.64,72.75,156.39Z"/><path class="cls-1" d="M133.94,6.9A245,245,0,0,1,249.71,7a93.21,93.21,0,0,0-14.55,22.08,84.32,84.32,0,0,0-6.72,21.26c-.34,2-1.18,2.63-2.95,3.14a120.61,120.61,0,0,1-67.76,0c-1.31-.37-2.53-.5-2.85-2.35a88.37,88.37,0,0,0-20.6-43.22A3.46,3.46,0,0,1,133.94,6.9Z"/></g></g></svg>