<svg xmlns="http://www.w3.org/2000/svg" viewBox="0 0 109.8 70.73"><defs><style>.cls-1{fill:#4f46e5;}</style></defs><g id="Layer_2" data-name="Layer 2"><g id="Layer_1-2" data-name="Layer 1"><path class="cls-1" d="M0,34.5A95.26,95.26,0,0,1,17.47,15.93,73.15,73.15,0,0,1,39.61,2.79,44.77,44.77,0,0,1,73,3.72a73.84,73.84,0,0,1,18,11A105.77,105.77,0,0,1,108.83,33c1.23,1.61,1.3,3,.12,4.49-8.38,10.9-18.19,20.21-30.35,26.82-7.84,4.26-16.18,6.72-25.2,6.35a48.61,48.61,0,0,1-19.68-5.25C21.72,59.51,12,50.86,3.4,40.72A34.49,34.49,0,0,1,0,36.22ZM55.15,57.87a22.51,22.51,0,1,0-.11-45c-12.5.05-22.93,10.33-22.87,22.56S42.68,57.92,55.15,57.87Z"/><path class="cls-1" d="M45,35.32c0-5.13,4.76-9.63,10.11-9.6A9.64,9.64,0,1,1,55.05,45C49.66,45,45,40.46,45,35.32Z"/></g></g></svg>